<svg width="174" height="44" viewBox="0 0 174 44" fill="none" xmlns="http://www.w3.org/2000/svg">
<rect x="0.5" y="0.5" width="173" height="43" rx="7.5" fill="#5D729C" stroke="#FFFAEF"/>
<path d="M30.96 33.43L28.77 26.95L22.83 26.95L20.52 33.43L22.77 33.43L22.77 34L18.18 34V33.43H19.59L27.24 12.82L29.7 12.82L37.26 33.43L38.64 33.43V34L28.83 34L28.83 33.43L30.96 33.43ZM25.92 18.43L23.1 26.29L28.53 26.29L25.92 18.43ZM46.3601 19.72L46.3601 31.42C46.3601 34.7 45.7901 37.2 44.6501 38.92C43.5301 40.64 41.6901 41.5 39.1301 41.5C37.4701 41.5 36.2601 41.17 35.5001 40.51C34.7201 39.85 34.3301 39.08 34.3301 38.2C34.3301 37.32 34.5901 36.64 35.1101 36.16C35.6301 35.7 36.2801 35.47 37.0601 35.47C37.8401 35.47 38.4301 35.68 38.8301 36.1C39.2101 36.54 39.4001 37.02 39.4001 37.54C39.4001 38.06 39.3401 38.56 39.2201 39.04H38.0801C37.7601 39.58 37.7201 40.04 37.9601 40.42C38.1801 40.8 38.5901 40.99 39.1901 40.99C39.8101 40.99 40.2301 40.64 40.4501 39.94C40.6701 39.26 40.7801 37.84 40.7801 35.68L40.7801 20.26L38.8301 20.26V19.72L46.3601 19.72ZM43.5101 17.65C42.4501 17.65 41.6901 17.38 41.2301 16.84C40.7901 16.3 40.5701 15.63 40.5701 14.83C40.5701 14.03 40.8101 13.37 41.2901 12.85C41.7901 12.33 42.5401 12.07 43.5401 12.07C44.5401 12.07 45.3001 12.31 45.8201 12.79C46.3401 13.25 46.6001 13.92 46.6001 14.8C46.6001 15.66 46.3501 16.35 45.8501 16.87C45.3501 17.39 44.5701 17.65 43.5101 17.65ZM55.6465 26.95L56.5165 26.95L56.5165 24.64C56.5165 22.74 56.4065 21.47 56.1865 20.83C55.9865 20.17 55.5865 19.84 54.9865 19.84C54.6265 19.84 54.2965 19.94 53.9965 20.14C53.7165 20.32 53.5765 20.58 53.5765 20.92C53.5765 21.24 53.6365 21.57 53.7565 21.91L54.5065 21.91C54.6665 22.33 54.7465 22.84 54.7465 23.44C54.7465 24.02 54.4965 24.53 53.9965 24.97C53.4965 25.39 52.8665 25.6 52.1065 25.6C50.3865 25.6 49.5265 24.77 49.5265 23.11C49.5265 20.65 51.6165 19.42 55.7965 19.42C58.1765 19.42 59.8165 19.83 60.7165 20.65C61.6365 21.45 62.0965 22.93 62.0965 25.09L62.0965 31.18C62.0965 32.22 62.3865 32.74 62.9665 32.74C63.6465 32.74 64.0465 31.71 64.1665 29.65L64.6165 29.68C64.5365 31.44 64.2065 32.65 63.6265 33.31C63.0465 33.97 62.0965 34.3 60.7765 34.3C58.3765 34.3 56.9965 33.56 56.6365 32.08C56.3765 32.84 55.9865 33.4 55.4665 33.76C54.9465 34.12 54.1865 34.3 53.1865 34.3C50.2265 34.3 48.7465 33.09 48.7465 30.67C48.7465 29.25 49.3065 28.28 50.4265 27.76C51.5665 27.22 53.3065 26.95 55.6465 26.95ZM54.4465 30.64C54.4465 31.68 54.4965 32.35 54.5965 32.65C54.7165 32.95 54.9265 33.1 55.2265 33.1C55.5465 33.1 55.8365 32.85 56.0965 32.35C56.3765 31.83 56.5165 31.12 56.5165 30.22L56.5165 27.43L56.3065 27.43C55.0665 27.43 54.4465 28.34 54.4465 30.16V30.64ZM53.7865 17.59L55.6765 11.86L57.0865 11.56C57.7065 11.42 58.1765 11.5 58.4965 11.8C58.8365 12.08 59.0065 12.47 59.0065 12.97C59.0065 13.45 58.7165 13.95 58.1365 14.47L54.1165 17.8L53.7865 17.59ZM64.9713 19.72L72.2013 19.72V22.48C72.5213 21.56 73.0113 20.82 73.6713 20.26C74.3313 19.7 75.3313 19.42 76.6713 19.42C79.7713 19.42 81.3213 21.09 81.3213 24.43L81.3213 33.46H83.0013V34L74.5113 34V33.46H75.7413L75.7413 23.71C75.7413 22.51 75.6613 21.74 75.5013 21.4C75.3413 21.04 75.0513 20.86 74.6313 20.86C73.9913 20.86 73.4213 21.28 72.9213 22.12C72.4413 22.96 72.2013 23.98 72.2013 25.18L72.2013 33.46L73.4913 33.46V34L64.9713 34V33.46H66.6213L66.6213 20.26H64.9713V19.72ZM83.2777 11.5L90.6277 11.5L90.6277 33.46H92.3077V34L83.3977 34V33.46H85.0477L85.0477 12.04L83.2777 12.04V11.5ZM102.58 28.09V25.54C102.58 23.6 102.47 22.19 102.25 21.31C102.05 20.41 101.57 19.96 100.81 19.96C100.37 19.96 100.01 20.09 99.7298 20.35C99.4698 20.59 99.2798 21 99.1598 21.58C98.9798 22.48 98.8898 23.85 98.8898 25.69V28.03C98.8898 30.21 98.9498 31.52 99.0698 31.96C99.2098 32.4 99.3498 32.76 99.4898 33.04C99.7098 33.52 100.14 33.76 100.78 33.76C101.56 33.76 102.07 33.31 102.31 32.41C102.49 31.77 102.58 30.33 102.58 28.09ZM100.72 34.3C98.2198 34.3 96.3298 33.66 95.0498 32.38C93.7698 31.1 93.1298 29.27 93.1298 26.89C93.1298 24.49 93.8098 22.65 95.1698 21.37C96.5498 20.07 98.4798 19.42 100.96 19.42C103.44 19.42 105.29 20.02 106.51 21.22C107.73 22.4 108.34 24.21 108.34 26.65C108.34 31.75 105.8 34.3 100.72 34.3ZM98.7398 17.59L100.63 11.86L102.04 11.56C102.66 11.42 103.13 11.5 103.45 11.8C103.79 12.08 103.96 12.47 103.96 12.97C103.96 13.45 103.67 13.95 103.09 14.47L99.0698 17.8L98.7398 17.59ZM113.589 17.65C112.529 17.65 111.769 17.38 111.309 16.84C110.869 16.3 110.649 15.63 110.649 14.83C110.649 14.03 110.889 13.37 111.369 12.85C111.869 12.33 112.619 12.07 113.619 12.07C114.619 12.07 115.379 12.31 115.899 12.79C116.419 13.25 116.679 13.92 116.679 14.8C116.679 15.66 116.429 16.35 115.929 16.87C115.429 17.39 114.649 17.65 113.589 17.65ZM109.059 19.72L116.409 19.72L116.409 33.46H118.089V34L109.179 34V33.46H110.829L110.829 20.26L109.059 20.26V19.72ZM118.76 19.72L125.99 19.72V22.48C126.31 21.56 126.8 20.82 127.46 20.26C128.12 19.7 129.12 19.42 130.46 19.42C133.56 19.42 135.11 21.09 135.11 24.43V33.46H136.79V34L128.3 34V33.46L129.53 33.46V23.71C129.53 22.51 129.45 21.74 129.29 21.4C129.13 21.04 128.84 20.86 128.42 20.86C127.78 20.86 127.21 21.28 126.71 22.12C126.23 22.96 125.99 23.98 125.99 25.18L125.99 33.46H127.28V34L118.76 34V33.46H120.41L120.41 20.26H118.76V19.72ZM146.997 34V33.46L148.377 33.46L144.987 26.5L144.417 26.65V33.46L145.797 33.46V34L137.187 34V33.46H138.837L138.837 12.04L137.067 12.04V11.5L144.417 11.5L144.417 26.05L144.897 25.87L151.647 20.26L148.827 20.26V19.72L154.737 19.72V20.26L152.637 20.26L149.067 23.29L154.257 33.46H155.337V34L146.997 34Z" fill="#FFFAEF"/>
</svg>
