<svg width="220" height="43" viewBox="0 0 220 43" fill="none" xmlns="http://www.w3.org/2000/svg">
<rect y="14.2362" width="219.998" height="14.2355" fill="#ED1F24"/>
<rect x="0.000183105" y="28.4723" width="219.998" height="14.2355" rx="2" fill="#FFCD05"/>
<rect x="0.0495605" y="28.4723" width="12.1538" height="6.19667" fill="#FFCD05"/>
<rect x="207.846" y="28.4723" width="12.1538" height="6.19667" fill="#FFCD05"/>
<rect x="0.0495605" y="8.00806" width="12.1538" height="6.19667" fill="black"/>
<rect x="207.846" y="8.00803" width="12.1538" height="6.19667" fill="black"/>
<rect x="0.000183105" y="1.52588e-05" width="219.998" height="14.2355" rx="2" fill="black"/>
<path d="M38.42 22.14C38.42 26.26 37.26 29.13 34.94 30.75C32.8 32.25 29.86 33 26.12 33H17.63V32.43H19.61V12.57H17.63V12H26.9C30.74 12 33.62 12.79 35.54 14.37C37.46 15.93 38.42 18.52 38.42 22.14ZM25.46 32.43H26.6C28.62 32.43 30.06 31.72 30.92 30.3C31.8 28.86 32.24 26.46 32.24 23.1V21.36C32.24 16.86 31.38 14.15 29.66 13.23C28.84 12.79 27.68 12.57 26.18 12.57H25.46V32.43ZM47.8365 33.3C45.2565 33.3 43.3165 32.64 42.0165 31.32C40.7365 29.98 40.0965 28.13 40.0965 25.77C40.0965 23.39 40.8165 21.57 42.2565 20.31C43.7165 19.05 45.5665 18.42 47.8065 18.42C52.3465 18.42 54.5265 20.7 54.3465 25.26H45.8865V26.43C45.8865 28.39 46.1365 29.87 46.6365 30.87C47.1365 31.87 48.0065 32.37 49.2465 32.37C51.5665 32.37 53.0865 31.13 53.8065 28.65L54.3465 28.74C53.9665 30.18 53.2765 31.3 52.2765 32.1C51.2965 32.9 49.8165 33.3 47.8365 33.3ZM45.9165 24.66H49.0065V23.19C49.0065 21.57 48.9065 20.47 48.7065 19.89C48.5265 19.29 48.1465 18.99 47.5665 18.99C47.0065 18.99 46.5865 19.31 46.3065 19.95C46.0465 20.57 45.9165 21.65 45.9165 23.19V24.66ZM72.9652 33H66.1252L65.7952 30.81C65.4752 31.61 64.9952 32.23 64.3552 32.67C63.7352 33.09 62.8052 33.3 61.5652 33.3C58.4652 33.3 56.9152 31.63 56.9152 28.29V19.26H55.2352V18.72H62.4952V29.01C62.4952 30.21 62.5752 31 62.7352 31.38C62.9152 31.76 63.2552 31.95 63.7552 31.95C64.2752 31.95 64.7352 31.64 65.1352 31.02C65.5352 30.4 65.7352 29.54 65.7352 28.44V19.26H64.3552V18.72H71.3152V32.46H72.9652V33ZM75.0793 28.71V19.26H73.4293V18.72H75.0793V14.85L80.6593 13.47V18.72H84.5593V19.26H80.6593V29.37C80.6593 30.31 80.7493 31 80.9293 31.44C81.1293 31.88 81.5293 32.1 82.1293 32.1C82.7293 32.1 83.2493 31.8 83.6893 31.2C84.1493 30.6 84.4493 29.78 84.5893 28.74L85.0993 28.8C84.9393 30.18 84.4993 31.28 83.7793 32.1C83.0593 32.9 81.8693 33.3 80.2093 33.3C78.5493 33.3 77.2793 32.97 76.3993 32.31C75.5193 31.65 75.0793 30.45 75.0793 28.71ZM86.0759 33.3V27.93H86.4359C86.9559 29.67 87.6559 30.89 88.5359 31.59C89.4159 32.29 90.5159 32.64 91.8359 32.64C93.8759 32.64 94.8959 31.99 94.8959 30.69C94.8959 30.13 94.6459 29.71 94.1459 29.43C93.3659 28.99 92.3659 28.65 91.1459 28.41C89.7859 28.05 88.6459 27.57 87.7259 26.97C86.6259 26.25 86.0759 25.11 86.0759 23.55C86.0759 21.99 86.5559 20.75 87.5159 19.83C88.4759 18.89 89.7559 18.42 91.3559 18.42C92.3359 18.42 93.3459 18.65 94.3859 19.11C94.7659 19.27 95.0559 19.35 95.2559 19.35C95.4559 19.35 95.6259 19.28 95.7659 19.14C95.9059 19 96.0759 18.74 96.2759 18.36H96.6059V22.95H96.2459C95.2259 20.35 93.6459 19.05 91.5059 19.05C90.5659 19.05 89.8659 19.22 89.4059 19.56C88.9459 19.88 88.7159 20.29 88.7159 20.79C88.7159 21.09 88.7859 21.33 88.9259 21.51C89.0659 21.67 89.1759 21.79 89.2559 21.87C89.3359 21.95 89.4659 22.04 89.6459 22.14C89.8259 22.22 89.9759 22.29 90.0959 22.35C90.2159 22.39 90.3959 22.45 90.6359 22.53C90.8959 22.61 91.0859 22.66 91.2059 22.68C92.5659 23.02 93.5459 23.32 94.1459 23.58C94.7459 23.82 95.3159 24.12 95.8559 24.48C96.9559 25.24 97.5059 26.47 97.5059 28.17C97.5059 29.85 97.0059 31.13 96.0059 32.01C95.0059 32.87 93.6359 33.3 91.8959 33.3C90.6559 33.3 89.4559 33.01 88.2959 32.43C88.0559 32.27 87.8659 32.19 87.7259 32.19C87.2859 32.19 86.8559 32.56 86.4359 33.3H86.0759ZM106.794 18.96C105.914 18.96 105.284 19.44 104.904 20.4C104.524 21.36 104.334 22.95 104.334 25.17V26.73C104.334 28.71 104.554 30.13 104.994 30.99C105.434 31.85 106.244 32.28 107.424 32.28C108.604 32.28 109.544 31.88 110.244 31.08C110.944 30.28 111.394 29.37 111.594 28.35L112.134 28.41C111.754 30.13 111.054 31.37 110.034 32.13C108.994 32.91 107.564 33.3 105.744 33.3C103.424 33.3 101.644 32.68 100.404 31.44C99.1638 30.18 98.5438 28.35 98.5438 25.95C98.5438 23.53 99.2438 21.67 100.644 20.37C102.064 19.07 104.034 18.42 106.554 18.42C108.334 18.42 109.694 18.77 110.634 19.47C111.574 20.15 112.044 21.01 112.044 22.05C112.044 23.09 111.814 23.85 111.354 24.33C110.914 24.81 110.294 25.05 109.494 25.05C108.714 25.05 108.084 24.84 107.604 24.42C107.124 24 106.884 23.38 106.884 22.56C106.884 22.2 106.934 21.84 107.034 21.48H108.024C108.164 21.08 108.234 20.72 108.234 20.4C108.234 19.44 107.754 18.96 106.794 18.96ZM112.603 10.5H119.833V21.48C120.153 20.56 120.643 19.82 121.303 19.26C121.963 18.7 122.963 18.42 124.303 18.42C127.403 18.42 128.953 20.09 128.953 23.43V32.46H130.633V33H122.143V32.46H123.373V22.71C123.373 21.51 123.293 20.74 123.133 20.4C122.973 20.04 122.683 19.86 122.263 19.86C121.623 19.86 121.053 20.28 120.553 21.12C120.073 21.96 119.833 22.98 119.833 24.18V32.46H121.123V33H112.603V32.46H114.253V11.04H112.603V10.5ZM131.419 12H140.389C143.169 12 145.249 12.38 146.629 13.14C148.029 13.88 148.729 15.14 148.729 16.92C148.729 19.66 147.079 21.3 143.779 21.84V21.9C147.779 22.4 149.779 24.14 149.779 27.12C149.779 29.3 148.959 30.83 147.319 31.71C145.679 32.57 143.319 33 140.239 33H131.419V32.43H133.369V12.57H131.419V12ZM139.219 22.38V32.43H140.629C141.729 32.43 142.499 32.05 142.939 31.29C143.379 30.53 143.599 29.41 143.599 27.93V26.34C143.599 25.02 143.329 24.03 142.789 23.37C142.249 22.71 141.289 22.38 139.909 22.38H139.219ZM139.219 12.57V21.81H139.999C141.039 21.81 141.759 21.5 142.159 20.88C142.579 20.24 142.789 19.27 142.789 17.97V16.56C142.789 15.08 142.609 14.05 142.249 13.47C141.889 12.87 141.199 12.57 140.179 12.57H139.219ZM150.744 10.5H158.094V32.46H159.774V33H150.864V32.46H152.514V11.04H150.744V10.5ZM164.767 16.65C163.707 16.65 162.947 16.38 162.487 15.84C162.047 15.3 161.827 14.63 161.827 13.83C161.827 13.03 162.067 12.37 162.547 11.85C163.047 11.33 163.797 11.07 164.797 11.07C165.797 11.07 166.557 11.31 167.077 11.79C167.597 12.25 167.857 12.92 167.857 13.8C167.857 14.66 167.607 15.35 167.107 15.87C166.607 16.39 165.827 16.65 164.767 16.65ZM160.237 18.72H167.587V32.46H169.267V33H160.357V32.46H162.007V19.26H160.237V18.72ZM178.278 18.96C177.398 18.96 176.768 19.44 176.388 20.4C176.008 21.36 175.818 22.95 175.818 25.17V26.73C175.818 28.71 176.038 30.13 176.478 30.99C176.918 31.85 177.728 32.28 178.908 32.28C180.088 32.28 181.028 31.88 181.728 31.08C182.428 30.28 182.878 29.37 183.078 28.35L183.618 28.41C183.238 30.13 182.538 31.37 181.518 32.13C180.478 32.91 179.048 33.3 177.228 33.3C174.908 33.3 173.128 32.68 171.888 31.44C170.648 30.18 170.028 28.35 170.028 25.95C170.028 23.53 170.728 21.67 172.128 20.37C173.548 19.07 175.518 18.42 178.038 18.42C179.818 18.42 181.178 18.77 182.118 19.47C183.058 20.15 183.528 21.01 183.528 22.05C183.528 23.09 183.298 23.85 182.838 24.33C182.398 24.81 181.778 25.05 180.978 25.05C180.198 25.05 179.568 24.84 179.088 24.42C178.608 24 178.368 23.38 178.368 22.56C178.368 22.2 178.418 21.84 178.518 21.48H179.508C179.648 21.08 179.718 20.72 179.718 20.4C179.718 19.44 179.238 18.96 178.278 18.96ZM193.897 33V32.46H195.277L191.887 25.5L191.317 25.65V32.46H192.697V33H184.087V32.46H185.737V11.04H183.967V10.5H191.317V25.05L191.797 24.87L198.547 19.26H195.727V18.72H201.637V19.26H199.537L195.967 22.29L201.157 32.46H202.237V33H193.897Z" fill="#FFFAEF"/>
</svg>
