<svg width="182" height="44" viewBox="0 0 182 44" fill="none" xmlns="http://www.w3.org/2000/svg">
<rect width="182" height="44" rx="2" fill="#006188"/>
<path d="M38.42 23.14C38.42 27.26 37.26 30.13 34.94 31.75C32.8 33.25 29.86 34 26.12 34L17.63 34L17.63 33.43L19.61 33.43L19.61 13.57L17.63 13.57L17.63 13L26.9 13C30.74 13 33.62 13.79 35.54 15.37C37.46 16.93 38.42 19.52 38.42 23.14ZM25.46 33.43L26.6 33.43C28.62 33.43 30.06 32.72 30.92 31.3C31.8 29.86 32.24 27.46 32.24 24.1L32.24 22.36C32.24 17.86 31.38 15.15 29.66 14.23C28.84 13.79 27.68 13.57 26.18 13.57L25.46 13.57L25.46 33.43ZM44.3565 17.65C43.2965 17.65 42.5365 17.38 42.0765 16.84C41.6365 16.3 41.4165 15.63 41.4165 14.83C41.4165 14.03 41.6565 13.37 42.1365 12.85C42.6365 12.33 43.3865 12.07 44.3865 12.07C45.3865 12.07 46.1465 12.31 46.6665 12.79C47.1865 13.25 47.4465 13.92 47.4465 14.8C47.4465 15.66 47.1965 16.35 46.6965 16.87C46.1965 17.39 45.4165 17.65 44.3565 17.65ZM39.8265 19.72L47.1765 19.72L47.1765 33.46L48.8565 33.46L48.8565 34L39.9465 34L39.9465 33.46L41.5965 33.46L41.5965 20.26L39.8265 20.26L39.8265 19.72ZM48.2598 20.26L48.2598 19.72L57.2298 19.72L57.2298 20.26L55.3398 20.26L58.9398 30.22L62.1798 20.26L60.1698 20.26L60.1698 19.72L64.2198 19.72L64.2198 20.26L62.8998 20.26L58.4598 34L55.0398 34L49.4898 20.26L48.2598 20.26ZM70.8184 26.95L71.6884 26.95L71.6884 24.64C71.6884 22.74 71.5784 21.47 71.3584 20.83C71.1584 20.17 70.7584 19.84 70.1584 19.84C69.7984 19.84 69.4684 19.94 69.1684 20.14C68.8884 20.32 68.7484 20.58 68.7484 20.92C68.7484 21.24 68.8084 21.57 68.9284 21.91L69.6784 21.91C69.8384 22.33 69.9184 22.84 69.9184 23.44C69.9184 24.02 69.6684 24.53 69.1684 24.97C68.6684 25.39 68.0384 25.6 67.2784 25.6C65.5584 25.6 64.6984 24.77 64.6984 23.11C64.6984 20.65 66.7884 19.42 70.9684 19.42C73.3484 19.42 74.9884 19.83 75.8884 20.65C76.8084 21.45 77.2684 22.93 77.2684 25.09L77.2684 31.18C77.2684 32.22 77.5584 32.74 78.1384 32.74C78.8184 32.74 79.2184 31.71 79.3384 29.65L79.7884 29.68C79.7084 31.44 79.3784 32.65 78.7984 33.31C78.2184 33.97 77.2684 34.3 75.9484 34.3C73.5484 34.3 72.1684 33.56 71.8084 32.08C71.5484 32.84 71.1584 33.4 70.6384 33.76C70.1184 34.12 69.3584 34.3 68.3584 34.3C65.3984 34.3 63.9184 33.09 63.9184 30.67C63.9184 29.25 64.4784 28.28 65.5984 27.76C66.7384 27.22 68.4784 26.95 70.8184 26.95ZM69.6184 30.64C69.6184 31.68 69.6684 32.35 69.7684 32.65C69.8884 32.95 70.0984 33.1 70.3984 33.1C70.7184 33.1 71.0084 32.85 71.2684 32.35C71.5484 31.83 71.6884 31.12 71.6884 30.22L71.6884 27.43L71.4784 27.43C70.2384 27.43 69.6184 28.34 69.6184 30.16L69.6184 30.64ZM81.1438 29.71L81.1438 20.26L79.4938 20.26L79.4938 19.72L81.1438 19.72L81.1438 15.85L86.7238 14.47L86.7238 19.72L90.6238 19.72L90.6238 20.26L86.7238 20.26L86.7238 30.37C86.7238 31.31 86.8138 32 86.9938 32.44C87.1938 32.88 87.5938 33.1 88.1938 33.1C88.7938 33.1 89.3138 32.8 89.7538 32.2C90.2138 31.6 90.5138 30.78 90.6538 29.74L91.1638 29.8C91.0038 31.18 90.5638 32.28 89.8438 33.1C89.1238 33.9 87.9338 34.3 86.2738 34.3C84.6138 34.3 83.3438 33.97 82.4638 33.31C81.5838 32.65 81.1438 31.45 81.1438 29.71ZM101.47 20.56C100.73 20.56 100.08 21.04 99.5204 22C98.9604 22.96 98.6804 24.1 98.6804 25.42L98.6804 33.46L100.81 33.46L100.81 34L91.4504 34L91.4504 33.46L93.1004 33.46L93.1004 20.26L91.4504 20.26L91.4504 19.72L98.6804 19.72L98.6804 22.6C98.9404 21.58 99.4404 20.8 100.18 20.26C100.92 19.7 101.76 19.42 102.7 19.42C103.64 19.42 104.4 19.69 104.98 20.23C105.58 20.75 105.88 21.5 105.88 22.48C105.88 23.44 105.66 24.18 105.22 24.7C104.78 25.22 104.1 25.48 103.18 25.48C102.28 25.48 101.61 25.18 101.17 24.58C100.75 23.98 100.7 23.15 101.02 22.09L102.1 22.09C102.6 21.07 102.39 20.56 101.47 20.56ZM115.847 28.09L115.847 25.54C115.847 23.6 115.737 22.19 115.517 21.31C115.317 20.41 114.837 19.96 114.077 19.96C113.637 19.96 113.277 20.09 112.997 20.35C112.737 20.59 112.547 21 112.427 21.58C112.247 22.48 112.157 23.85 112.157 25.69L112.157 28.03C112.157 30.21 112.217 31.52 112.337 31.96C112.477 32.4 112.617 32.76 112.757 33.04C112.977 33.52 113.407 33.76 114.047 33.76C114.827 33.76 115.337 33.31 115.577 32.41C115.757 31.77 115.847 30.33 115.847 28.09ZM113.987 34.3C111.487 34.3 109.597 33.66 108.317 32.38C107.037 31.1 106.397 29.27 106.397 26.89C106.397 24.49 107.077 22.65 108.437 21.37C109.817 20.07 111.747 19.42 114.227 19.42C116.707 19.42 118.557 20.02 119.777 21.22C120.997 22.4 121.607 24.21 121.607 26.65C121.607 31.75 119.067 34.3 113.987 34.3ZM121.385 20.26L121.385 19.72L130.355 19.72L130.355 20.26L128.465 20.26L132.065 30.22L135.305 20.26L133.295 20.26L133.295 19.72L137.345 19.72L137.345 20.26L136.025 20.26L131.585 34L128.165 34L122.615 20.26L121.385 20.26ZM143.943 26.95L144.813 26.95L144.813 24.64C144.813 22.74 144.703 21.47 144.483 20.83C144.283 20.17 143.883 19.84 143.283 19.84C142.923 19.84 142.593 19.94 142.293 20.14C142.013 20.32 141.873 20.58 141.873 20.92C141.873 21.24 141.933 21.57 142.053 21.91L142.803 21.91C142.963 22.33 143.043 22.84 143.043 23.44C143.043 24.02 142.793 24.53 142.293 24.97C141.793 25.39 141.163 25.6 140.403 25.6C138.683 25.6 137.823 24.77 137.823 23.11C137.823 20.65 139.913 19.42 144.093 19.42C146.473 19.42 148.113 19.83 149.013 20.65C149.933 21.45 150.393 22.93 150.393 25.09L150.393 31.18C150.393 32.22 150.683 32.74 151.263 32.74C151.943 32.74 152.343 31.71 152.463 29.65L152.913 29.68C152.833 31.44 152.503 32.65 151.923 33.31C151.343 33.97 150.393 34.3 149.073 34.3C146.673 34.3 145.293 33.56 144.933 32.08C144.673 32.84 144.283 33.4 143.763 33.76C143.243 34.12 142.483 34.3 141.483 34.3C138.523 34.3 137.043 33.09 137.043 30.67C137.043 29.25 137.603 28.28 138.723 27.76C139.863 27.22 141.603 26.95 143.943 26.95ZM142.743 30.64C142.743 31.68 142.793 32.35 142.893 32.65C143.013 32.95 143.223 33.1 143.523 33.1C143.843 33.1 144.133 32.85 144.393 32.35C144.673 31.83 144.813 31.12 144.813 30.22L144.813 27.43L144.603 27.43C143.363 27.43 142.743 28.34 142.743 30.16L142.743 30.64ZM154.269 29.71L154.269 20.26L152.619 20.26L152.619 19.72L154.269 19.72L154.269 15.85L159.849 14.47L159.849 19.72L163.749 19.72L163.749 20.26L159.849 20.26L159.849 30.37C159.849 31.31 159.939 32 160.119 32.44C160.319 32.88 160.719 33.1 161.319 33.1C161.919 33.1 162.439 32.8 162.879 32.2C163.339 31.6 163.639 30.78 163.779 29.74L164.289 29.8C164.129 31.18 163.689 32.28 162.969 33.1C162.249 33.9 161.059 34.3 159.399 34.3C157.739 34.3 156.469 33.97 155.589 33.31C154.709 32.65 154.269 31.45 154.269 29.71Z" fill="#FFFAEF"/>
</svg>
