<svg width="134" height="15" viewBox="0 0 134 15" fill="none" xmlns="http://www.w3.org/2000/svg">
<path d="M0.378 1.4H9.738L9.918 4.964H9.594C9.09 3.752 8.562 2.924 8.01 2.48C7.458 2.024 6.648 1.796 5.58 1.796H4.95V7.358H5.562C6.126 7.358 6.6 7.148 6.984 6.728C7.368 6.296 7.638 5.72 7.794 5H8.064V10.328H7.758C7.542 9.428 7.248 8.786 6.876 8.402C6.516 8.018 6.018 7.826 5.382 7.826H4.95V13.604H5.634C6.738 13.604 7.674 13.274 8.442 12.614C9.222 11.954 9.756 11.108 10.044 10.076H10.404L10.26 14H0.378V13.604H1.44V1.796H0.378V1.4ZM11.3404 0.499999H15.7504V13.676H16.7584V14H11.4124V13.676H12.4024V0.823999H11.3404V0.499999ZM17.0357 0.499999H21.4457V13.676H22.4537V14H17.1077V13.676H18.0977V0.823999H17.0357V0.499999ZM27.537 14.18C25.989 14.18 24.825 13.784 24.045 12.992C23.277 12.188 22.893 11.078 22.893 9.662C22.893 8.234 23.325 7.142 24.189 6.386C25.065 5.63 26.175 5.252 27.519 5.252C30.243 5.252 31.551 6.62 31.443 9.356H26.367V10.058C26.367 11.234 26.517 12.122 26.817 12.722C27.117 13.322 27.639 13.622 28.383 13.622C29.775 13.622 30.687 12.878 31.119 11.39L31.443 11.444C31.215 12.308 30.801 12.98 30.201 13.46C29.613 13.94 28.725 14.18 27.537 14.18ZM26.385 8.996H28.239V8.114C28.239 7.142 28.179 6.482 28.059 6.134C27.951 5.774 27.723 5.594 27.375 5.594C27.039 5.594 26.787 5.786 26.619 6.17C26.463 6.542 26.385 7.19 26.385 8.114V8.996ZM32.1203 5.432H36.4583V7.088C36.6503 6.536 36.9443 6.092 37.3403 5.756C37.7363 5.42 38.3363 5.252 39.1403 5.252C41.0003 5.252 41.9303 6.254 41.9303 8.258V13.676H42.9383V14H37.8443V13.676H38.5823V7.826C38.5823 7.106 38.5343 6.644 38.4383 6.44C38.3423 6.224 38.1683 6.116 37.9163 6.116C37.5323 6.116 37.1903 6.368 36.8903 6.872C36.6023 7.376 36.4583 7.988 36.4583 8.708V13.676H37.2323V14H32.1203V13.676H33.1103V5.756H32.1203V5.432ZM48.9901 10.454V8.924C48.9901 7.76 48.9241 6.914 48.7921 6.386C48.6721 5.846 48.3841 5.576 47.9281 5.576C47.6641 5.576 47.4481 5.654 47.2801 5.81C47.1241 5.954 47.0101 6.2 46.9381 6.548C46.8301 7.088 46.7761 7.91 46.7761 9.014V10.418C46.7761 11.726 46.8121 12.512 46.8841 12.776C46.9681 13.04 47.0521 13.256 47.1361 13.424C47.2681 13.712 47.5261 13.856 47.9101 13.856C48.3781 13.856 48.6841 13.586 48.8281 13.046C48.9361 12.662 48.9901 11.798 48.9901 10.454ZM47.8741 14.18C46.3741 14.18 45.2401 13.796 44.4721 13.028C43.7041 12.26 43.3201 11.162 43.3201 9.734C43.3201 8.294 43.7281 7.19 44.5441 6.422C45.3721 5.642 46.5301 5.252 48.0181 5.252C49.5061 5.252 50.6161 5.612 51.3481 6.332C52.0801 7.04 52.4461 8.126 52.4461 9.59C52.4461 12.65 50.9221 14.18 47.8741 14.18ZM48.6841 4.154L49.8181 0.715999L50.6641 0.536C51.0361 0.451999 51.3181 0.499999 51.5101 0.68C51.7141 0.848 51.8161 1.082 51.8161 1.382C51.8161 1.67 51.6421 1.97 51.2941 2.282L48.8821 4.28L48.6841 4.154ZM46.0201 4.172L46.9741 0.68L47.8021 0.446C48.1621 0.349999 48.4441 0.385999 48.6481 0.553999C48.8641 0.709999 48.9781 0.937999 48.9901 1.238C49.0021 1.526 48.8461 1.832 48.5221 2.156L46.2181 4.28L46.0201 4.172ZM58.9615 5.936C58.5175 5.936 58.1275 6.224 57.7915 6.8C57.4555 7.376 57.2875 8.06 57.2875 8.852V13.676H58.5655V14H52.9495V13.676H53.9395V5.756H52.9495V5.432H57.2875V7.16C57.4435 6.548 57.7435 6.08 58.1875 5.756C58.6315 5.42 59.1355 5.252 59.6995 5.252C60.2635 5.252 60.7195 5.414 61.0675 5.738C61.4275 6.05 61.6075 6.5 61.6075 7.088C61.6075 7.664 61.4755 8.108 61.2115 8.42C60.9475 8.732 60.5395 8.888 59.9875 8.888C59.4475 8.888 59.0455 8.708 58.7815 8.348C58.5295 7.988 58.4995 7.49 58.6915 6.854H59.3395C59.6395 6.242 59.5135 5.936 58.9615 5.936ZM69.8801 5.432V5.756L65.6141 13.676H65.8481C66.8561 13.676 67.6481 13.412 68.2241 12.884C68.8001 12.356 69.2501 11.498 69.5741 10.31H69.8261L69.5381 14H61.9781V13.73L66.3161 5.756H66.1181C64.9061 5.756 64.0601 5.954 63.5801 6.35C63.1121 6.746 62.6921 7.592 62.3201 8.888H62.0861L62.3201 5.432H69.8801ZM76.4999 10.454V8.924C76.4999 7.76 76.4339 6.914 76.3019 6.386C76.1819 5.846 75.8939 5.576 75.4379 5.576C75.1739 5.576 74.9579 5.654 74.7899 5.81C74.6339 5.954 74.5199 6.2 74.4479 6.548C74.3399 7.088 74.2859 7.91 74.2859 9.014V10.418C74.2859 11.726 74.3219 12.512 74.3939 12.776C74.4779 13.04 74.5619 13.256 74.6459 13.424C74.7779 13.712 75.0359 13.856 75.4199 13.856C75.8879 13.856 76.1939 13.586 76.3379 13.046C76.4459 12.662 76.4999 11.798 76.4999 10.454ZM75.3839 14.18C73.8839 14.18 72.7499 13.796 71.9819 13.028C71.2139 12.26 70.8299 11.162 70.8299 9.734C70.8299 8.294 71.2379 7.19 72.0539 6.422C72.8819 5.642 74.0399 5.252 75.5279 5.252C77.0159 5.252 78.1259 5.612 78.8579 6.332C79.5899 7.04 79.9559 8.126 79.9559 9.59C79.9559 12.65 78.4319 14.18 75.3839 14.18ZM76.1579 3.56C75.9419 3.296 75.8339 2.978 75.8339 2.606C75.8339 2.234 75.9479 1.922 76.1759 1.67C76.4159 1.418 76.7399 1.292 77.1479 1.292C77.5679 1.292 77.8979 1.406 78.1379 1.634C78.3899 1.85 78.5159 2.168 78.5159 2.588C78.5159 3.008 78.3959 3.344 78.1559 3.596C77.9279 3.836 77.5919 3.956 77.1479 3.956C76.7039 3.956 76.3739 3.824 76.1579 3.56ZM72.6839 3.56C72.4679 3.296 72.3599 2.978 72.3599 2.606C72.3599 2.234 72.4739 1.922 72.7019 1.67C72.9419 1.418 73.2659 1.292 73.6739 1.292C74.0939 1.292 74.4239 1.406 74.6639 1.634C74.9159 1.85 75.0419 2.168 75.0419 2.588C75.0419 3.008 74.9219 3.344 74.6819 3.596C74.4539 3.836 74.1179 3.956 73.6739 3.956C73.2299 3.956 72.8999 3.824 72.6839 3.56ZM81.1793 11.426V5.756H80.1893V5.432H81.1793V3.11L84.5273 2.282V5.432H87.1553V3.11L90.5033 2.282V5.432H92.8433V5.756H90.5033V11.822C90.5033 12.386 90.5573 12.8 90.6653 13.064C90.7853 13.328 91.0253 13.46 91.3853 13.46C91.7453 13.46 92.0573 13.28 92.3213 12.92C92.5973 12.56 92.7773 12.068 92.8613 11.444L93.1673 11.48C93.0713 12.308 92.8073 12.968 92.3753 13.46C91.9433 13.94 91.2713 14.18 90.3593 14.18C89.4473 14.18 88.7393 14.054 88.2353 13.802C87.7433 13.538 87.4193 13.076 87.2633 12.416C86.8313 13.592 85.8533 14.18 84.3293 14.18C83.3213 14.18 82.5413 13.982 81.9893 13.586C81.4493 13.19 81.1793 12.47 81.1793 11.426ZM87.1553 11.426V5.756H84.5273V11.822C84.5273 12.398 84.5993 12.818 84.7433 13.082C84.8873 13.334 85.1573 13.46 85.5533 13.46C85.9613 13.46 86.3093 13.28 86.5973 12.92C86.8853 12.548 87.0713 12.05 87.1553 11.426ZM101.618 5.576C101.09 5.576 100.712 5.864 100.484 6.44C100.256 7.016 100.142 7.97 100.142 9.302V10.238C100.142 11.426 100.274 12.278 100.538 12.794C100.802 13.31 101.288 13.568 101.996 13.568C102.704 13.568 103.268 13.328 103.688 12.848C104.108 12.368 104.378 11.822 104.498 11.21L104.822 11.246C104.594 12.278 104.174 13.022 103.562 13.478C102.938 13.946 102.08 14.18 100.988 14.18C99.5964 14.18 98.5284 13.808 97.7844 13.064C97.0404 12.308 96.6684 11.21 96.6684 9.77C96.6684 8.318 97.0884 7.202 97.9284 6.422C98.7804 5.642 99.9624 5.252 101.474 5.252C102.542 5.252 103.358 5.462 103.922 5.882C104.486 6.29 104.768 6.806 104.768 7.43C104.768 8.054 104.63 8.51 104.354 8.798C104.09 9.086 103.718 9.23 103.238 9.23C102.77 9.23 102.392 9.104 102.104 8.852C101.816 8.6 101.672 8.228 101.672 7.736C101.672 7.52 101.702 7.304 101.762 7.088H102.356C102.44 6.848 102.482 6.632 102.482 6.44C102.482 5.864 102.194 5.576 101.618 5.576ZM107.926 4.19C107.29 4.19 106.834 4.028 106.558 3.704C106.294 3.38 106.162 2.978 106.162 2.498C106.162 2.018 106.306 1.622 106.594 1.31C106.894 0.998 107.344 0.842 107.944 0.842C108.544 0.842 109 0.986 109.312 1.274C109.624 1.55 109.78 1.952 109.78 2.48C109.78 2.996 109.63 3.41 109.33 3.722C109.03 4.034 108.562 4.19 107.926 4.19ZM105.208 5.432H109.618V13.676H110.626V14H105.28V13.676H106.27V5.756H105.208V5.432ZM116.879 14V13.676H117.707L115.673 9.5L115.331 9.59V13.676H116.159V14H110.993V13.676H111.983V0.823999H110.921V0.499999H115.331V9.23L115.619 9.122L119.669 5.756H117.977V5.432H121.523V5.756H120.263L118.121 7.574L121.235 13.676H121.883V14H116.879ZM128.041 14V13.676H128.869L126.835 9.5L126.493 9.59V13.676H127.321V14H122.155V13.676H123.145V0.823999H122.083V0.499999H126.493V9.23L126.781 9.122L130.831 5.756H129.139V5.432H132.685V5.756H131.425L129.283 7.574L132.397 13.676H133.045V14H128.041Z" fill="#FFFAEF"/>
</svg>
