<svg width="249" height="40" viewBox="0 0 249 40" fill="none" xmlns="http://www.w3.org/2000/svg">
<path d="M0.63 11H16.23L16.53 16.94H15.99C15.15 14.92 14.27 13.54 13.35 12.8C12.43 12.04 11.08 11.66 9.3 11.66H8.25V20.93H9.27C10.21 20.93 11 20.58 11.64 19.88C12.28 19.16 12.73 18.2 12.99 17H13.44V25.88H12.93C12.57 24.38 12.08 23.31 11.46 22.67C10.86 22.03 10.03 21.71 8.97 21.71H8.25V31.34H9.39C11.23 31.34 12.79 30.79 14.07 29.69C15.37 28.59 16.26 27.18 16.74 25.46H17.34L17.1 32H0.63V31.34H2.4V11.66H0.63V11ZM18.9007 9.5H26.2507V31.46H27.9307V32H19.0207V31.46H20.6707V10.04H18.9007V9.5ZM28.3929 9.5H35.7429V31.46H37.4229V32H28.5129V31.46H30.1629V10.04H28.3929V9.5ZM45.8951 32.3C43.3151 32.3 41.3751 31.64 40.0751 30.32C38.7951 28.98 38.1551 27.13 38.1551 24.77C38.1551 22.39 38.8751 20.57 40.3151 19.31C41.7751 18.05 43.6251 17.42 45.8651 17.42C50.4051 17.42 52.5851 19.7 52.4051 24.26H43.9451V25.43C43.9451 27.39 44.1951 28.87 44.6951 29.87C45.1951 30.87 46.0651 31.37 47.3051 31.37C49.6251 31.37 51.1451 30.13 51.8651 27.65L52.4051 27.74C52.0251 29.18 51.3351 30.3 50.3351 31.1C49.3551 31.9 47.8751 32.3 45.8951 32.3ZM43.9751 23.66H47.0651V22.19C47.0651 20.57 46.9651 19.47 46.7651 18.89C46.5851 18.29 46.2051 17.99 45.6251 17.99C45.0651 17.99 44.6451 18.31 44.3651 18.95C44.1051 19.57 43.9751 20.65 43.9751 22.19V23.66ZM53.5338 17.72H60.7638V20.48C61.0838 19.56 61.5738 18.82 62.2338 18.26C62.8938 17.7 63.8938 17.42 65.2338 17.42C68.3338 17.42 69.8838 19.09 69.8838 22.43V31.46H71.5638V32H63.0738V31.46H64.3038V21.71C64.3038 20.51 64.2238 19.74 64.0638 19.4C63.9038 19.04 63.6138 18.86 63.1938 18.86C62.5538 18.86 61.9838 19.28 61.4838 20.12C61.0038 20.96 60.7638 21.98 60.7638 23.18V31.46H62.0538V32H53.5338V31.46H55.1838V18.26H53.5338V17.72ZM81.6502 26.09V23.54C81.6502 21.6 81.5402 20.19 81.3202 19.31C81.1202 18.41 80.6402 17.96 79.8802 17.96C79.4402 17.96 79.0802 18.09 78.8002 18.35C78.5402 18.59 78.3502 19 78.2302 19.58C78.0502 20.48 77.9602 21.85 77.9602 23.69V26.03C77.9602 28.21 78.0202 29.52 78.1402 29.96C78.2802 30.4 78.4202 30.76 78.5602 31.04C78.7802 31.52 79.2102 31.76 79.8502 31.76C80.6302 31.76 81.1402 31.31 81.3802 30.41C81.5602 29.77 81.6502 28.33 81.6502 26.09ZM79.7902 32.3C77.2902 32.3 75.4002 31.66 74.1202 30.38C72.8402 29.1 72.2002 27.27 72.2002 24.89C72.2002 22.49 72.8802 20.65 74.2402 19.37C75.6202 18.07 77.5502 17.42 80.0302 17.42C82.5102 17.42 84.3602 18.02 85.5802 19.22C86.8002 20.4 87.4102 22.21 87.4102 24.65C87.4102 29.75 84.8702 32.3 79.7902 32.3ZM81.1402 15.59L83.0302 9.86L84.4402 9.56C85.0602 9.42 85.5302 9.5 85.8502 9.8C86.1902 10.08 86.3602 10.47 86.3602 10.97C86.3602 11.45 86.0702 11.95 85.4902 12.47L81.4702 15.8L81.1402 15.59ZM76.7002 15.62L78.2902 9.8L79.6702 9.41C80.2702 9.25 80.7402 9.31 81.0802 9.59C81.4402 9.85 81.6302 10.23 81.6502 10.73C81.6702 11.21 81.4102 11.72 80.8702 12.26L77.0302 15.8L76.7002 15.62ZM98.2692 18.56C97.5292 18.56 96.8792 19.04 96.3192 20C95.7592 20.96 95.4792 22.1 95.4792 23.42V31.46H97.6092V32H88.2492V31.46H89.8992V18.26H88.2492V17.72H95.4792V20.6C95.7392 19.58 96.2392 18.8 96.9792 18.26C97.7192 17.7 98.5592 17.42 99.4992 17.42C100.439 17.42 101.199 17.69 101.779 18.23C102.379 18.75 102.679 19.5 102.679 20.48C102.679 21.44 102.459 22.18 102.019 22.7C101.579 23.22 100.899 23.48 99.9792 23.48C99.0792 23.48 98.4092 23.18 97.9692 22.58C97.5492 21.98 97.4992 21.15 97.8192 20.09H98.8992C99.3992 19.07 99.1892 18.56 98.2692 18.56ZM116.467 17.72V18.26L109.357 31.46H109.747C111.427 31.46 112.747 31.02 113.707 30.14C114.667 29.26 115.417 27.83 115.957 25.85H116.377L115.897 32H103.297V31.55L110.527 18.26H110.197C108.177 18.26 106.767 18.59 105.967 19.25C105.187 19.91 104.487 21.32 103.867 23.48H103.477L103.867 17.72H116.467ZM127.5 26.09V23.54C127.5 21.6 127.39 20.19 127.17 19.31C126.97 18.41 126.49 17.96 125.73 17.96C125.29 17.96 124.93 18.09 124.65 18.35C124.39 18.59 124.2 19 124.08 19.58C123.9 20.48 123.81 21.85 123.81 23.69V26.03C123.81 28.21 123.87 29.52 123.99 29.96C124.13 30.4 124.27 30.76 124.41 31.04C124.63 31.52 125.06 31.76 125.7 31.76C126.48 31.76 126.99 31.31 127.23 30.41C127.41 29.77 127.5 28.33 127.5 26.09ZM125.64 32.3C123.14 32.3 121.25 31.66 119.97 30.38C118.69 29.1 118.05 27.27 118.05 24.89C118.05 22.49 118.73 20.65 120.09 19.37C121.47 18.07 123.4 17.42 125.88 17.42C128.36 17.42 130.21 18.02 131.43 19.22C132.65 20.4 133.26 22.21 133.26 24.65C133.26 29.75 130.72 32.3 125.64 32.3ZM126.93 14.6C126.57 14.16 126.39 13.63 126.39 13.01C126.39 12.39 126.58 11.87 126.96 11.45C127.36 11.03 127.9 10.82 128.58 10.82C129.28 10.82 129.83 11.01 130.23 11.39C130.65 11.75 130.86 12.28 130.86 12.98C130.86 13.68 130.66 14.24 130.26 14.66C129.88 15.06 129.32 15.26 128.58 15.26C127.84 15.26 127.29 15.04 126.93 14.6ZM121.14 14.6C120.78 14.16 120.6 13.63 120.6 13.01C120.6 12.39 120.79 11.87 121.17 11.45C121.57 11.03 122.11 10.82 122.79 10.82C123.49 10.82 124.04 11.01 124.44 11.39C124.86 11.75 125.07 12.28 125.07 12.98C125.07 13.68 124.87 14.24 124.47 14.66C124.09 15.06 123.53 15.26 122.79 15.26C122.05 15.26 121.5 15.04 121.14 14.6ZM135.299 27.71V18.26H133.649V17.72H135.299V13.85L140.879 12.47V17.72H145.259V13.85L150.839 12.47V17.72H154.739V18.26H150.839V28.37C150.839 29.31 150.929 30 151.109 30.44C151.309 30.88 151.709 31.1 152.309 31.1C152.909 31.1 153.429 30.8 153.869 30.2C154.329 29.6 154.629 28.78 154.769 27.74L155.279 27.8C155.119 29.18 154.679 30.28 153.959 31.1C153.239 31.9 152.119 32.3 150.599 32.3C149.079 32.3 147.899 32.09 147.059 31.67C146.239 31.23 145.699 30.46 145.439 29.36C144.719 31.32 143.089 32.3 140.549 32.3C138.869 32.3 137.569 31.97 136.649 31.31C135.749 30.65 135.299 29.45 135.299 27.71ZM145.259 27.71V18.26H140.879V28.37C140.879 29.33 140.999 30.03 141.239 30.47C141.479 30.89 141.929 31.1 142.589 31.1C143.269 31.1 143.849 30.8 144.329 30.2C144.809 29.58 145.119 28.75 145.259 27.71ZM169.364 17.96C168.484 17.96 167.854 18.44 167.474 19.4C167.094 20.36 166.904 21.95 166.904 24.17V25.73C166.904 27.71 167.124 29.13 167.564 29.99C168.004 30.85 168.814 31.28 169.994 31.28C171.174 31.28 172.114 30.88 172.814 30.08C173.514 29.28 173.964 28.37 174.164 27.35L174.704 27.41C174.324 29.13 173.624 30.37 172.604 31.13C171.564 31.91 170.134 32.3 168.314 32.3C165.994 32.3 164.214 31.68 162.974 30.44C161.734 29.18 161.114 27.35 161.114 24.95C161.114 22.53 161.814 20.67 163.214 19.37C164.634 18.07 166.604 17.42 169.124 17.42C170.904 17.42 172.264 17.77 173.204 18.47C174.144 19.15 174.614 20.01 174.614 21.05C174.614 22.09 174.384 22.85 173.924 23.33C173.484 23.81 172.864 24.05 172.064 24.05C171.284 24.05 170.654 23.84 170.174 23.42C169.694 23 169.454 22.38 169.454 21.56C169.454 21.2 169.504 20.84 169.604 20.48H170.594C170.734 20.08 170.804 19.72 170.804 19.4C170.804 18.44 170.324 17.96 169.364 17.96ZM179.876 15.65C178.816 15.65 178.056 15.38 177.596 14.84C177.156 14.3 176.936 13.63 176.936 12.83C176.936 12.03 177.176 11.37 177.656 10.85C178.156 10.33 178.906 10.07 179.906 10.07C180.906 10.07 181.666 10.31 182.186 10.79C182.706 11.25 182.966 11.92 182.966 12.8C182.966 13.66 182.716 14.35 182.216 14.87C181.716 15.39 180.936 15.65 179.876 15.65ZM175.346 17.72H182.696V31.46H184.376V32H175.466V31.46H177.116V18.26H175.346V17.72ZM194.798 32V31.46H196.178L192.788 24.5L192.218 24.65V31.46H193.598V32H184.988V31.46H186.638V10.04H184.868V9.5H192.218V24.05L192.698 23.87L199.448 18.26H196.628V17.72H202.538V18.26H200.438L196.868 21.29L202.058 31.46H203.138V32H194.798ZM213.401 32V31.46H214.781L211.391 24.5L210.821 24.65V31.46H212.201V32H203.591V31.46H205.241V10.04H203.471V9.5H210.821V24.05L211.301 23.87L218.051 18.26H215.231V17.72H221.141V18.26H219.041L215.471 21.29L220.661 31.46H221.741V32H213.401Z" fill="#FFFAEF"/>
<circle cx="237.5" cy="20.5" r="11.5" fill="#FFFAEF"/>
<path d="M242.174 15.817C242.423 15.5163 242.779 15.3244 243.167 15.2822C243.555 15.24 243.943 15.3509 244.251 15.5912C244.402 15.708 244.528 15.854 244.621 16.0203C244.715 16.1867 244.774 16.3702 244.795 16.5598C244.817 16.7495 244.8 16.9415 244.746 17.1246C244.692 17.3076 244.602 17.478 244.481 17.6256L236.619 27.2856C236.487 27.4452 236.324 27.5758 236.139 27.6691C235.955 27.7623 235.753 27.8163 235.546 27.8275C235.34 27.8387 235.133 27.8069 234.94 27.7341C234.746 27.6614 234.569 27.5492 234.421 27.4048L228.525 21.613L228.423 21.5042C227.95 20.9355 227.983 20.0971 228.525 19.566C229.067 19.0349 229.922 19.0014 230.501 19.4656L230.612 19.566L235.358 24.2078L242.195 15.8232L242.174 15.817Z" fill="#394E58"/>
</svg>
