<svg width="219" height="44" viewBox="0 0 219 44" fill="none" xmlns="http://www.w3.org/2000/svg">
<rect x="0.5" y="0.5" width="218" height="43" rx="7.5" fill="#2A6D8A" stroke="#FFFAEF"/>
<path d="M18.63 13L27.99 13V13.57L26.25 13.57L26.25 22.87L32.22 22.87L32.22 13.57L30.45 13.57V13L39.84 13L39.84 13.57L38.07 13.57L38.07 33.43L39.84 33.43V34L30.45 34L30.45 33.43L32.22 33.43L32.22 23.65L26.25 23.65L26.25 33.43H27.99L27.99 34L18.63 34V33.43H20.4L20.4 13.57L18.63 13.57L18.63 13ZM45.1807 17.65C44.1207 17.65 43.3607 17.38 42.9007 16.84C42.4607 16.3 42.2407 15.63 42.2407 14.83C42.2407 14.03 42.4807 13.37 42.9607 12.85C43.4607 12.33 44.2107 12.07 45.2107 12.07C46.2107 12.07 46.9707 12.31 47.4907 12.79C48.0107 13.25 48.2707 13.92 48.2707 14.8C48.2707 15.66 48.0207 16.35 47.5207 16.87C47.0207 17.39 46.2407 17.65 45.1807 17.65ZM40.6507 19.72L48.0007 19.72L48.0007 33.46L49.6807 33.46V34L40.7707 34V33.46H42.4207L42.4207 20.26L40.6507 20.26V19.72ZM60.3122 20.56C59.5722 20.56 58.9222 21.04 58.3622 22C57.8022 22.96 57.5222 24.1 57.5222 25.42L57.5222 33.46H59.6522V34L50.2922 34V33.46H51.9422L51.9422 20.26H50.2922V19.72L57.5222 19.72L57.5222 22.6C57.7822 21.58 58.2822 20.8 59.0222 20.26C59.7622 19.7 60.6022 19.42 61.5422 19.42C62.4822 19.42 63.2422 19.69 63.8222 20.23C64.4222 20.75 64.7222 21.5 64.7222 22.48C64.7222 23.44 64.5022 24.18 64.0622 24.7C63.6222 25.22 62.9422 25.48 62.0222 25.48C61.1222 25.48 60.4522 25.18 60.0122 24.58C59.5922 23.98 59.5422 23.15 59.8622 22.09L60.9422 22.09C61.4422 21.07 61.2322 20.56 60.3122 20.56ZM71.2357 27.79C71.2357 29.89 71.3457 31.29 71.5657 31.99C71.7857 32.67 72.1857 33.01 72.7657 33.01C73.3657 33.01 73.8757 32.75 74.2957 32.23C74.7357 31.71 74.9557 30.94 74.9557 29.92L74.9557 23.38C74.9557 22.52 74.7857 21.79 74.4457 21.19C74.1057 20.59 73.6057 20.29 72.9457 20.29C72.2857 20.29 71.8357 20.73 71.5957 21.61C71.3557 22.49 71.2357 24.03 71.2357 26.23V27.79ZM75.3457 34L75.0157 31.9C74.3357 33.5 72.9557 34.3 70.8757 34.3C69.1557 34.3 67.8157 33.68 66.8557 32.44C65.9157 31.2 65.4457 29.35 65.4457 26.89C65.4457 21.91 67.4257 19.42 71.3857 19.42C73.1457 19.42 74.3057 19.91 74.8657 20.89L74.8657 12.04L73.0357 12.04V11.5L80.5357 11.5L80.5357 33.46L82.0057 33.46V34L75.3457 34ZM90.6724 34.3C88.0924 34.3 86.1524 33.64 84.8524 32.32C83.5724 30.98 82.9324 29.13 82.9324 26.77C82.9324 24.39 83.6524 22.57 85.0924 21.31C86.5524 20.05 88.4024 19.42 90.6424 19.42C95.1824 19.42 97.3624 21.7 97.1824 26.26L88.7224 26.26V27.43C88.7224 29.39 88.9724 30.87 89.4724 31.87C89.9724 32.87 90.8424 33.37 92.0824 33.37C94.4024 33.37 95.9224 32.13 96.6424 29.65L97.1824 29.74C96.8024 31.18 96.1124 32.3 95.1124 33.1C94.1324 33.9 92.6524 34.3 90.6724 34.3ZM88.7524 25.66L91.8424 25.66V24.19C91.8424 22.57 91.7424 21.47 91.5424 20.89C91.3624 20.29 90.9824 19.99 90.4024 19.99C89.8424 19.99 89.4224 20.31 89.1424 20.95C88.8824 21.57 88.7524 22.65 88.7524 24.19V25.66ZM99.7512 29.71L99.7512 20.26H98.1012V19.72H99.7512V15.85L105.331 14.47V19.72L109.231 19.72V20.26L105.331 20.26L105.331 30.37C105.331 31.31 105.421 32 105.601 32.44C105.801 32.88 106.201 33.1 106.801 33.1C107.401 33.1 107.921 32.8 108.361 32.2C108.821 31.6 109.121 30.78 109.261 29.74L109.771 29.8C109.611 31.18 109.171 32.28 108.451 33.1C107.731 33.9 106.541 34.3 104.881 34.3C103.221 34.3 101.951 33.97 101.071 33.31C100.191 32.65 99.7512 31.45 99.7512 29.71ZM117.948 34.3C115.368 34.3 113.428 33.64 112.128 32.32C110.848 30.98 110.208 29.13 110.208 26.77C110.208 24.39 110.928 22.57 112.368 21.31C113.828 20.05 115.678 19.42 117.918 19.42C122.458 19.42 124.638 21.7 124.458 26.26L115.998 26.26V27.43C115.998 29.39 116.248 30.87 116.748 31.87C117.248 32.87 118.118 33.37 119.358 33.37C121.678 33.37 123.198 32.13 123.918 29.65L124.458 29.74C124.078 31.18 123.388 32.3 122.388 33.1C121.408 33.9 119.928 34.3 117.948 34.3ZM119.118 25.66V24.19C119.118 22.57 119.018 21.47 118.818 20.89C118.638 20.29 118.258 19.99 117.678 19.99C117.118 19.99 116.698 20.31 116.418 20.95C116.158 21.57 116.028 22.65 116.028 24.19V25.66L119.118 25.66ZM115.698 17.59L117.588 11.86L118.998 11.56C119.618 11.42 120.088 11.5 120.408 11.8C120.748 12.08 120.918 12.47 120.918 12.97C120.918 13.45 120.628 13.95 120.048 14.47L116.028 17.8L115.698 17.59ZM126.217 34.3L126.217 28.93H126.577C127.097 30.67 127.797 31.89 128.677 32.59C129.557 33.29 130.657 33.64 131.977 33.64C134.017 33.64 135.037 32.99 135.037 31.69C135.037 31.13 134.787 30.71 134.287 30.43C133.507 29.99 132.507 29.65 131.287 29.41C129.927 29.05 128.787 28.57 127.867 27.97C126.767 27.25 126.217 26.11 126.217 24.55C126.217 22.99 126.697 21.75 127.657 20.83C128.617 19.89 129.897 19.42 131.497 19.42C132.477 19.42 133.487 19.65 134.527 20.11C134.907 20.27 135.197 20.35 135.397 20.35C135.597 20.35 135.767 20.28 135.907 20.14C136.047 20 136.217 19.74 136.417 19.36H136.747L136.747 23.95H136.387C135.367 21.35 133.787 20.05 131.647 20.05C130.707 20.05 130.007 20.22 129.547 20.56C129.087 20.88 128.857 21.29 128.857 21.79C128.857 22.09 128.927 22.33 129.067 22.51C129.207 22.67 129.317 22.79 129.397 22.87C129.477 22.95 129.607 23.04 129.787 23.14C129.967 23.22 130.117 23.29 130.237 23.35C130.357 23.39 130.537 23.45 130.777 23.53C131.037 23.61 131.227 23.66 131.347 23.68C132.707 24.02 133.687 24.32 134.287 24.58C134.887 24.82 135.457 25.12 135.997 25.48C137.097 26.24 137.647 27.47 137.647 29.17C137.647 30.85 137.147 32.13 136.147 33.01C135.147 33.87 133.777 34.3 132.037 34.3C130.797 34.3 129.597 34.01 128.437 33.43C128.197 33.27 128.007 33.19 127.867 33.19C127.427 33.19 126.997 33.56 126.577 34.3H126.217ZM146.424 34.3C143.844 34.3 141.904 33.64 140.604 32.32C139.324 30.98 138.684 29.13 138.684 26.77C138.684 24.39 139.404 22.57 140.844 21.31C142.304 20.05 144.154 19.42 146.394 19.42C150.934 19.42 153.114 21.7 152.934 26.26L144.474 26.26V27.43C144.474 29.39 144.724 30.87 145.224 31.87C145.724 32.87 146.594 33.37 147.834 33.37C150.154 33.37 151.674 32.13 152.394 29.65L152.934 29.74C152.554 31.18 151.864 32.3 150.864 33.1C149.884 33.9 148.404 34.3 146.424 34.3ZM144.504 25.66L147.594 25.66V24.19C147.594 22.57 147.494 21.47 147.294 20.89C147.114 20.29 146.734 19.99 146.154 19.99C145.594 19.99 145.174 20.31 144.894 20.95C144.634 21.57 144.504 22.65 144.504 24.19V25.66ZM158.413 17.65C157.353 17.65 156.593 17.38 156.133 16.84C155.693 16.3 155.473 15.63 155.473 14.83C155.473 14.03 155.713 13.37 156.193 12.85C156.693 12.33 157.443 12.07 158.443 12.07C159.443 12.07 160.203 12.31 160.723 12.79C161.243 13.25 161.503 13.92 161.503 14.8C161.503 15.66 161.253 16.35 160.753 16.87C160.253 17.39 159.473 17.65 158.413 17.65ZM153.883 19.72L161.233 19.72L161.233 33.46L162.913 33.46V34L154.003 34V33.46H155.653L155.653 20.26H153.883V19.72ZM163.585 19.72L170.815 19.72V22.48C171.135 21.56 171.625 20.82 172.285 20.26C172.945 19.7 173.945 19.42 175.285 19.42C178.385 19.42 179.935 21.09 179.935 24.43L179.935 33.46L181.615 33.46V34L173.125 34V33.46H174.355L174.355 23.71C174.355 22.51 174.275 21.74 174.115 21.4C173.955 21.04 173.665 20.86 173.245 20.86C172.605 20.86 172.035 21.28 171.535 22.12C171.055 22.96 170.815 23.98 170.815 25.18L170.815 33.46H172.105V34L163.585 34V33.46L165.235 33.46L165.235 20.26L163.585 20.26V19.72ZM191.821 34V33.46H193.201L189.811 26.5L189.241 26.65L189.241 33.46H190.621V34L182.011 34V33.46H183.661L183.661 12.04L181.891 12.04V11.5L189.241 11.5V26.05L189.721 25.87L196.471 20.26L193.651 20.26V19.72L199.561 19.72V20.26L197.461 20.26L193.891 23.29L199.081 33.46H200.161V34L191.821 34Z" fill="#FFFAEF"/>
</svg>
