<svg width="102" height="40" viewBox="0 0 102 40" fill="none" xmlns="http://www.w3.org/2000/svg">
<path d="M3.63 11L12.99 11L12.99 11.57L11.25 11.57L11.25 20.87L17.22 20.87L17.22 11.57L15.45 11.57L15.45 11L24.84 11L24.84 11.57L23.07 11.57L23.07 31.43L24.84 31.43L24.84 32L15.45 32L15.45 31.43L17.22 31.43L17.22 21.65L11.25 21.65L11.25 31.43L12.99 31.43L12.99 32L3.63 32L3.63 31.43L5.4 31.43L5.4 11.57L3.63 11.57L3.63 11ZM30.1807 15.65C29.1207 15.65 28.3607 15.38 27.9007 14.84C27.4607 14.3 27.2407 13.63 27.2407 12.83C27.2407 12.03 27.4807 11.37 27.9607 10.85C28.4607 10.33 29.2107 10.07 30.2107 10.07C31.2107 10.07 31.9707 10.31 32.4907 10.79C33.0107 11.25 33.2707 11.92 33.2707 12.8C33.2707 13.66 33.0207 14.35 32.5207 14.87C32.0207 15.39 31.2407 15.65 30.1807 15.65ZM25.6507 17.72L33.0007 17.72L33.0007 31.46L34.6807 31.46L34.6807 32L25.7707 32L25.7707 31.46L27.4207 31.46L27.4207 18.26L25.6507 18.26L25.6507 17.72ZM36.7922 27.71L36.7922 18.26L35.1422 18.26L35.1422 17.72L36.7922 17.72L36.7922 13.85L42.3722 12.47L42.3722 17.72L46.2722 17.72L46.2722 18.26L42.3722 18.26L42.3722 28.37C42.3722 29.31 42.4622 30 42.6422 30.44C42.8422 30.88 43.2422 31.1 43.8422 31.1C44.4422 31.1 44.9622 30.8 45.4022 30.2C45.8622 29.6 46.1622 28.78 46.3022 27.74L46.8122 27.8C46.6522 29.18 46.2122 30.28 45.4922 31.1C44.7722 31.9 43.5822 32.3 41.9222 32.3C40.2622 32.3 38.9922 31.97 38.1122 31.31C37.2322 30.65 36.7922 29.45 36.7922 27.71ZM54.9888 32.3C52.4088 32.3 50.4688 31.64 49.1688 30.32C47.8888 28.98 47.2488 27.13 47.2488 24.77C47.2488 22.39 47.9688 20.57 49.4088 19.31C50.8688 18.05 52.7188 17.42 54.9588 17.42C59.4988 17.42 61.6788 19.7 61.4988 24.26L53.0388 24.26L53.0388 25.43C53.0388 27.39 53.2888 28.87 53.7888 29.87C54.2888 30.87 55.1588 31.37 56.3988 31.37C58.7188 31.37 60.2388 30.13 60.9588 27.65L61.4988 27.74C61.1188 29.18 60.4288 30.3 59.4288 31.1C58.4488 31.9 56.9688 32.3 54.9888 32.3ZM56.1588 23.66L56.1588 22.19C56.1588 20.57 56.0588 19.47 55.8588 18.89C55.6788 18.29 55.2988 17.99 54.7188 17.99C54.1588 17.99 53.7388 18.31 53.4588 18.95C53.1988 19.57 53.0688 20.65 53.0688 22.19L53.0688 23.66L56.1588 23.66ZM52.7388 15.59L54.6288 9.86L56.0388 9.56C56.6588 9.42 57.1288 9.5 57.4488 9.8C57.7888 10.08 57.9588 10.47 57.9588 10.97C57.9588 11.45 57.6688 11.95 57.0888 12.47L53.0688 15.8L52.7388 15.59ZM62.4476 9.5L69.7976 9.5L69.7976 31.46L71.4776 31.46L71.4776 32L62.5676 32L62.5676 31.46L64.2176 31.46L64.2176 10.04L62.4476 10.04L62.4476 9.5ZM79.9498 32.3C77.3698 32.3 75.4298 31.64 74.1298 30.32C72.8498 28.98 72.2098 27.13 72.2098 24.77C72.2098 22.39 72.9298 20.57 74.3698 19.31C75.8298 18.05 77.6798 17.42 79.9198 17.42C84.4598 17.42 86.6398 19.7 86.4598 24.26L77.9998 24.26L77.9998 25.43C77.9998 27.39 78.2498 28.87 78.7498 29.87C79.2498 30.87 80.1198 31.37 81.3598 31.37C83.6798 31.37 85.1998 30.13 85.9198 27.65L86.4598 27.74C86.0798 29.18 85.3898 30.3 84.3898 31.1C83.4098 31.9 81.9298 32.3 79.9498 32.3ZM78.0298 23.66L81.1198 23.66L81.1198 22.19C81.1198 20.57 81.0198 19.47 80.8198 18.89C80.6398 18.29 80.2598 17.99 79.6798 17.99C79.1198 17.99 78.6998 18.31 78.4198 18.95C78.1598 19.57 78.0298 20.65 78.0298 22.19L78.0298 23.66ZM89.0285 27.71L89.0285 18.26L87.3785 18.26L87.3785 17.72L89.0285 17.72L89.0285 13.85L94.6085 12.47L94.6085 17.72L98.5085 17.72L98.5085 18.26L94.6085 18.26L94.6085 28.37C94.6085 29.31 94.6985 30 94.8785 30.44C95.0785 30.88 95.4785 31.1 96.0785 31.1C96.6785 31.1 97.1985 30.8 97.6385 30.2C98.0985 29.6 98.3985 28.78 98.5385 27.74L99.0485 27.8C98.8885 29.18 98.4485 30.28 97.7285 31.1C97.0085 31.9 95.8185 32.3 94.1585 32.3C92.4985 32.3 91.2285 31.97 90.3485 31.31C89.4685 30.65 89.0285 29.45 89.0285 27.71Z" fill="#FFFAEF"/>
<rect y="3" width="1" height="33" fill="#FFFAEF"/>
<rect x="102" y="3" width="1" height="102" transform="rotate(90 102 3)" fill="#FFFAEF"/>
<rect x="1" y="36" width="0.999996" height="100" transform="rotate(-90 1 36)" fill="#FFFAEF"/>
<rect x="101" y="3" width="1" height="33" fill="#FFFAEF"/>
</svg>
