<svg width="110" height="44" viewBox="0 0 110 44" fill="none" xmlns="http://www.w3.org/2000/svg">
<rect x="0.5" y="0.5" width="109" height="43" rx="7.5" fill="#424485" stroke="#FFFAEF"/>
<path d="M7.63 13L16.99 13L16.99 13.57L15.25 13.57L15.25 22.87L21.22 22.87L21.22 13.57L19.45 13.57L19.45 13L28.84 13L28.84 13.57L27.07 13.57L27.07 33.43L28.84 33.43L28.84 34L19.45 34L19.45 33.43L21.22 33.43L21.22 23.65L15.25 23.65L15.25 33.43L16.99 33.43L16.99 34L7.63 34L7.63 33.43L9.4 33.43L9.4 13.57L7.63 13.57L7.63 13ZM34.1807 17.65C33.1207 17.65 32.3607 17.38 31.9007 16.84C31.4607 16.3 31.2407 15.63 31.2407 14.83C31.2407 14.03 31.4807 13.37 31.9607 12.85C32.4607 12.33 33.2107 12.07 34.2107 12.07C35.2107 12.07 35.9707 12.31 36.4907 12.79C37.0107 13.25 37.2707 13.92 37.2707 14.8C37.2707 15.66 37.0207 16.35 36.5207 16.87C36.0207 17.39 35.2407 17.65 34.1807 17.65ZM29.6507 19.72L37.0007 19.72L37.0007 33.46L38.6807 33.46L38.6807 34L29.7707 34L29.7707 33.46L31.4207 33.46L31.4207 20.26L29.6507 20.26L29.6507 19.72ZM40.7922 29.71L40.7922 20.26L39.1422 20.26L39.1422 19.72L40.7922 19.72L40.7922 15.85L46.3722 14.47L46.3722 19.72L50.2722 19.72L50.2722 20.26L46.3722 20.26L46.3722 30.37C46.3722 31.31 46.4622 32 46.6422 32.44C46.8422 32.88 47.2422 33.1 47.8422 33.1C48.4422 33.1 48.9622 32.8 49.4022 32.2C49.8622 31.6 50.1622 30.78 50.3022 29.74L50.8122 29.8C50.6522 31.18 50.2122 32.28 49.4922 33.1C48.7722 33.9 47.5822 34.3 45.9222 34.3C44.2622 34.3 42.9922 33.97 42.1122 33.31C41.2322 32.65 40.7922 31.45 40.7922 29.71ZM58.9888 34.3C56.4088 34.3 54.4688 33.64 53.1688 32.32C51.8888 30.98 51.2488 29.13 51.2488 26.77C51.2488 24.39 51.9688 22.57 53.4088 21.31C54.8688 20.05 56.7188 19.42 58.9588 19.42C63.4988 19.42 65.6788 21.7 65.4988 26.26L57.0388 26.26L57.0388 27.43C57.0388 29.39 57.2888 30.87 57.7888 31.87C58.2888 32.87 59.1588 33.37 60.3988 33.37C62.7188 33.37 64.2388 32.13 64.9588 29.65L65.4988 29.74C65.1188 31.18 64.4288 32.3 63.4288 33.1C62.4488 33.9 60.9688 34.3 58.9888 34.3ZM60.1588 25.66L60.1588 24.19C60.1588 22.57 60.0588 21.47 59.8588 20.89C59.6788 20.29 59.2988 19.99 58.7188 19.99C58.1588 19.99 57.7388 20.31 57.4588 20.95C57.1988 21.57 57.0688 22.65 57.0688 24.19L57.0688 25.66L60.1588 25.66ZM56.7388 17.59L58.6288 11.86L60.0388 11.56C60.6588 11.42 61.1288 11.5 61.4488 11.8C61.7888 12.08 61.9588 12.47 61.9588 12.97C61.9588 13.45 61.6688 13.95 61.0888 14.47L57.0688 17.8L56.7388 17.59ZM66.4476 11.5L73.7976 11.5L73.7976 33.46L75.4776 33.46L75.4776 34L66.5676 34L66.5676 33.46L68.2176 33.46L68.2176 12.04L66.4476 12.04L66.4476 11.5ZM83.9498 34.3C81.3698 34.3 79.4298 33.64 78.1298 32.32C76.8498 30.98 76.2098 29.13 76.2098 26.77C76.2098 24.39 76.9298 22.57 78.3698 21.31C79.8298 20.05 81.6798 19.42 83.9198 19.42C88.4598 19.42 90.6398 21.7 90.4598 26.26L81.9998 26.26L81.9998 27.43C81.9998 29.39 82.2498 30.87 82.7498 31.87C83.2498 32.87 84.1198 33.37 85.3598 33.37C87.6798 33.37 89.1998 32.13 89.9198 29.65L90.4598 29.74C90.0798 31.18 89.3898 32.3 88.3898 33.1C87.4098 33.9 85.9298 34.3 83.9498 34.3ZM82.0298 25.66L85.1198 25.66L85.1198 24.19C85.1198 22.57 85.0198 21.47 84.8198 20.89C84.6398 20.29 84.2598 19.99 83.6798 19.99C83.1198 19.99 82.6998 20.31 82.4198 20.95C82.1598 21.57 82.0298 22.65 82.0298 24.19L82.0298 25.66ZM93.0285 29.71L93.0285 20.26L91.3785 20.26L91.3785 19.72L93.0285 19.72L93.0285 15.85L98.6085 14.47L98.6085 19.72L102.509 19.72L102.509 20.26L98.6085 20.26L98.6085 30.37C98.6085 31.31 98.6985 32 98.8785 32.44C99.0785 32.88 99.4785 33.1 100.079 33.1C100.679 33.1 101.199 32.8 101.639 32.2C102.099 31.6 102.399 30.78 102.539 29.74L103.049 29.8C102.889 31.18 102.449 32.28 101.729 33.1C101.009 33.9 99.8185 34.3 98.1585 34.3C96.4985 34.3 95.2285 33.97 94.3485 33.31C93.4685 32.65 93.0285 31.45 93.0285 29.71Z" fill="#FFFAEF"/>
</svg>
