<svg width="219" height="44" viewBox="0 0 219 44" fill="none" xmlns="http://www.w3.org/2000/svg">
<rect x="0.5" y="0.5" width="218" height="43" rx="7.5" fill="#4FA8C9" stroke="white"/>
<path d="M12.75 13L21.9 13L21.9 13.57L20.25 13.57L20.25 33.43L21.9 33.43L21.9 34L12.75 34L12.75 33.43L14.4 33.43L14.4 13.57L12.75 13.57L12.75 13ZM23.6541 34.3L23.6541 28.93L24.0141 28.93C24.5341 30.67 25.2341 31.89 26.1141 32.59C26.9941 33.29 28.0941 33.64 29.4141 33.64C31.4541 33.64 32.4741 32.99 32.4741 31.69C32.4741 31.13 32.2241 30.71 31.7241 30.43C30.9441 29.99 29.9441 29.65 28.7241 29.41C27.3641 29.05 26.2241 28.57 25.3041 27.97C24.2041 27.25 23.6541 26.11 23.6541 24.55C23.6541 22.99 24.1341 21.75 25.0941 20.83C26.0541 19.89 27.3341 19.42 28.9341 19.42C29.9141 19.42 30.9241 19.65 31.9641 20.11C32.3441 20.27 32.6341 20.35 32.8341 20.35C33.0341 20.35 33.2041 20.28 33.3441 20.14C33.4841 20 33.6541 19.74 33.8541 19.36L34.1841 19.36L34.1841 23.95L33.8241 23.95C32.8041 21.35 31.2241 20.05 29.0841 20.05C28.1441 20.05 27.4441 20.22 26.9841 20.56C26.5241 20.88 26.2941 21.29 26.2941 21.79C26.2941 22.09 26.3641 22.33 26.5041 22.51C26.6441 22.67 26.7541 22.79 26.8341 22.87C26.9141 22.95 27.0441 23.04 27.2241 23.14C27.4041 23.22 27.5541 23.29 27.6741 23.35C27.7941 23.39 27.9741 23.45 28.2141 23.53C28.4741 23.61 28.6641 23.66 28.7841 23.68C30.1441 24.02 31.1241 24.32 31.7241 24.58C32.3241 24.82 32.8941 25.12 33.4341 25.48C34.5341 26.24 35.0841 27.47 35.0841 29.17C35.0841 30.85 34.5841 32.13 33.5841 33.01C32.5841 33.87 31.2141 34.3 29.4741 34.3C28.2341 34.3 27.0341 34.01 25.8741 33.43C25.6341 33.27 25.4441 33.19 25.3041 33.19C24.8641 33.19 24.4341 33.56 24.0141 34.3L23.6541 34.3ZM45.7819 34L45.7819 33.46L47.1619 33.46L43.7719 26.5L43.2019 26.65L43.2019 33.46L44.5819 33.46L44.5819 34L35.9719 34L35.9719 33.46L37.6219 33.46L37.6219 12.04L35.8519 12.04L35.8519 11.5L43.2019 11.5L43.2019 26.05L43.6819 25.87L50.4319 20.26L47.6119 20.26L47.6119 19.72L53.5219 19.72L53.5219 20.26L51.4219 20.26L47.8519 23.29L53.0419 33.46L54.1219 33.46L54.1219 34L45.7819 34ZM63.5037 28.09L63.5037 25.54C63.5037 23.6 63.3937 22.19 63.1737 21.31C62.9737 20.41 62.4937 19.96 61.7337 19.96C61.2937 19.96 60.9337 20.09 60.6537 20.35C60.3937 20.59 60.2037 21 60.0837 21.58C59.9037 22.48 59.8137 23.85 59.8137 25.69L59.8137 28.03C59.8137 30.21 59.8737 31.52 59.9937 31.96C60.1337 32.4 60.2737 32.76 60.4137 33.04C60.6337 33.52 61.0637 33.76 61.7037 33.76C62.4837 33.76 62.9937 33.31 63.2337 32.41C63.4137 31.77 63.5037 30.33 63.5037 28.09ZM61.6437 34.3C59.1437 34.3 57.2537 33.66 55.9737 32.38C54.6937 31.1 54.0537 29.27 54.0537 26.89C54.0537 24.49 54.7337 22.65 56.0937 21.37C57.4737 20.07 59.4037 19.42 61.8837 19.42C64.3637 19.42 66.2137 20.02 67.4337 21.22C68.6537 22.4 69.2637 24.21 69.2637 26.65C69.2637 31.75 66.7237 34.3 61.6437 34.3ZM69.9827 11.5L77.3327 11.5L77.3327 33.46L79.0127 33.46L79.0127 34L70.1027 34L70.1027 33.46L71.7527 33.46L71.7527 12.04L69.9827 12.04L69.9827 11.5ZM86.7949 26.95L87.6649 26.95L87.6649 24.64C87.6649 22.74 87.5549 21.47 87.3349 20.83C87.1349 20.17 86.7349 19.84 86.1349 19.84C85.7749 19.84 85.4449 19.94 85.1449 20.14C84.8649 20.32 84.7249 20.58 84.7249 20.92C84.7249 21.24 84.7849 21.57 84.9049 21.91L85.6549 21.91C85.8149 22.33 85.8949 22.84 85.8949 23.44C85.8949 24.02 85.6449 24.53 85.1449 24.97C84.6449 25.39 84.0149 25.6 83.2549 25.6C81.5349 25.6 80.6749 24.77 80.6749 23.11C80.6749 20.65 82.7649 19.42 86.9449 19.42C89.3249 19.42 90.9649 19.83 91.8649 20.65C92.7849 21.45 93.2449 22.93 93.2449 25.09L93.2449 31.18C93.2449 32.22 93.5349 32.74 94.1149 32.74C94.7949 32.74 95.1949 31.71 95.3149 29.65L95.7649 29.68C95.6849 31.44 95.3549 32.65 94.7749 33.31C94.1949 33.97 93.2449 34.3 91.9249 34.3C89.5249 34.3 88.1449 33.56 87.7849 32.08C87.5249 32.84 87.1349 33.4 86.6149 33.76C86.0949 34.12 85.3349 34.3 84.3349 34.3C81.3749 34.3 79.8949 33.09 79.8949 30.67C79.8949 29.25 80.4549 28.28 81.5749 27.76C82.7149 27.22 84.4549 26.95 86.7949 26.95ZM85.5949 30.64C85.5949 31.68 85.6449 32.35 85.7449 32.65C85.8649 32.95 86.0749 33.1 86.3749 33.1C86.6949 33.1 86.9849 32.85 87.2449 32.35C87.5249 31.83 87.6649 31.12 87.6649 30.22L87.6649 27.43L87.4549 27.43C86.2149 27.43 85.5949 28.34 85.5949 30.16L85.5949 30.64ZM84.9349 17.59L86.8249 11.86L88.2349 11.56C88.8549 11.42 89.3249 11.5 89.6449 11.8C89.9849 12.08 90.1549 12.47 90.1549 12.97C90.1549 13.45 89.8649 13.95 89.2849 14.47L85.2649 17.8L84.9349 17.59ZM96.1198 19.72L103.35 19.72L103.35 22.48C103.67 21.56 104.16 20.82 104.82 20.26C105.48 19.7 106.48 19.42 107.82 19.42C110.92 19.42 112.47 21.09 112.47 24.43L112.47 33.46L114.15 33.46L114.15 34L105.66 34L105.66 33.46L106.89 33.46L106.89 23.71C106.89 22.51 106.81 21.74 106.65 21.4C106.49 21.04 106.2 20.86 105.78 20.86C105.14 20.86 104.57 21.28 104.07 22.12C103.59 22.96 103.35 23.98 103.35 25.18L103.35 33.46L104.64 33.46L104.64 34L96.1198 34L96.1198 33.46L97.7698 33.46L97.7698 20.26L96.1198 20.26L96.1198 19.72ZM124.356 34L124.356 33.46L125.736 33.46L122.346 26.5L121.776 26.65L121.776 33.46L123.156 33.46L123.156 34L114.546 34L114.546 33.46L116.196 33.46L116.196 12.04L114.426 12.04L114.426 11.5L121.776 11.5L121.776 26.05L122.256 25.87L129.006 20.26L126.186 20.26L126.186 19.72L132.096 19.72L132.096 20.26L129.996 20.26L126.426 23.29L131.616 33.46L132.696 33.46L132.696 34L124.356 34ZM146.43 34.3C143.85 34.3 141.91 33.64 140.61 32.32C139.33 30.98 138.69 29.13 138.69 26.77C138.69 24.39 139.41 22.57 140.85 21.31C142.31 20.05 144.16 19.42 146.4 19.42C150.94 19.42 153.12 21.7 152.94 26.26L144.48 26.26L144.48 27.43C144.48 29.39 144.73 30.87 145.23 31.87C145.73 32.87 146.6 33.37 147.84 33.37C150.16 33.37 151.68 32.13 152.4 29.65L152.94 29.74C152.56 31.18 151.87 32.3 150.87 33.1C149.89 33.9 148.41 34.3 146.43 34.3ZM147.6 25.66L147.6 24.19C147.6 22.57 147.5 21.47 147.3 20.89C147.12 20.29 146.74 19.99 146.16 19.99C145.6 19.99 145.18 20.31 144.9 20.95C144.64 21.57 144.51 22.65 144.51 24.19L144.51 25.66L147.6 25.66ZM144.18 17.59L146.07 11.86L147.48 11.56C148.1 11.42 148.57 11.5 148.89 11.8C149.23 12.08 149.4 12.47 149.4 12.97C149.4 13.45 149.11 13.95 148.53 14.47L144.51 17.8L144.18 17.59ZM153.889 11.5L161.239 11.5L161.239 33.46L162.919 33.46L162.919 34L154.009 34L154.009 33.46L155.659 33.46L155.659 12.04L153.889 12.04L153.889 11.5ZM171.391 34.3C168.811 34.3 166.871 33.64 165.571 32.32C164.291 30.98 163.651 29.13 163.651 26.77C163.651 24.39 164.371 22.57 165.811 21.31C167.271 20.05 169.121 19.42 171.361 19.42C175.901 19.42 178.081 21.7 177.901 26.26L169.441 26.26L169.441 27.43C169.441 29.39 169.691 30.87 170.191 31.87C170.691 32.87 171.561 33.37 172.801 33.37C175.121 33.37 176.641 32.13 177.361 29.65L177.901 29.74C177.521 31.18 176.831 32.3 175.831 33.1C174.851 33.9 173.371 34.3 171.391 34.3ZM169.471 25.66L172.561 25.66L172.561 24.19C172.561 22.57 172.461 21.47 172.261 20.89C172.081 20.29 171.701 19.99 171.121 19.99C170.561 19.99 170.141 20.31 169.861 20.95C169.601 21.57 169.471 22.65 169.471 24.19L169.471 25.66ZM180.47 29.71L180.47 20.26L178.82 20.26L178.82 19.72L180.47 19.72L180.47 15.85L186.05 14.47L186.05 19.72L189.95 19.72L189.95 20.26L186.05 20.26L186.05 30.37C186.05 31.31 186.14 32 186.32 32.44C186.52 32.88 186.92 33.1 187.52 33.1C188.12 33.1 188.64 32.8 189.08 32.2C189.54 31.6 189.84 30.78 189.98 29.74L190.49 29.8C190.33 31.18 189.89 32.28 189.17 33.1C188.45 33.9 187.26 34.3 185.6 34.3C183.94 34.3 182.67 33.97 181.79 33.31C180.91 32.65 180.47 31.45 180.47 29.71ZM198.667 34.3C196.087 34.3 194.147 33.64 192.847 32.32C191.567 30.98 190.927 29.13 190.927 26.77C190.927 24.39 191.647 22.57 193.087 21.31C194.547 20.05 196.397 19.42 198.637 19.42C203.177 19.42 205.357 21.7 205.177 26.26L196.717 26.26L196.717 27.43C196.717 29.39 196.967 30.87 197.467 31.87C197.967 32.87 198.837 33.37 200.077 33.37C202.397 33.37 203.917 32.13 204.637 29.65L205.177 29.74C204.797 31.18 204.107 32.3 203.107 33.1C202.127 33.9 200.647 34.3 198.667 34.3ZM196.747 25.66L199.837 25.66L199.837 24.19C199.837 22.57 199.737 21.47 199.537 20.89C199.357 20.29 198.977 19.99 198.397 19.99C197.837 19.99 197.417 20.31 197.137 20.95C196.877 21.57 196.747 22.65 196.747 24.19L196.747 25.66Z" fill="#FFFAEF"/>
</svg>
