<svg width="230" height="44" viewBox="0 0 230 44" fill="none" xmlns="http://www.w3.org/2000/svg">
<rect x="0.5" y="0.500015" width="229" height="43" rx="7.5" fill="#5D729C" stroke="#FFFAEF"/>
<path d="M20.75 13L29.9 13L29.9 13.57L28.25 13.57L28.25 23.05L28.49 22.99L36.95 13.57L34.58 13.57L34.58 13L39.83 13L39.83 13.57L38.03 13.57L32.87 19.33L40.07 33.43L41.69 33.43L41.69 34L32.06 34L32.06 33.43L33.47 33.43L28.52 23.86L28.25 23.92L28.25 33.43L29.9 33.43L29.9 34L20.75 34L20.75 33.43L22.4 33.43L22.4 13.57L20.75 13.57L20.75 13ZM50.8201 28.09L50.8201 25.54C50.8201 23.6 50.7101 22.19 50.4901 21.31C50.2901 20.41 49.8101 19.96 49.0501 19.96C48.6101 19.96 48.2501 20.09 47.9701 20.35C47.7101 20.59 47.5201 21 47.4001 21.58C47.2201 22.48 47.1301 23.85 47.1301 25.69L47.1301 28.03C47.1301 30.21 47.1901 31.52 47.3101 31.96C47.4501 32.4 47.5901 32.76 47.7301 33.04C47.9501 33.52 48.3801 33.76 49.0201 33.76C49.8001 33.76 50.3101 33.31 50.5501 32.41C50.7301 31.77 50.8201 30.33 50.8201 28.09ZM48.9601 34.3C46.4601 34.3 44.5701 33.66 43.2901 32.38C42.0101 31.1 41.3701 29.27 41.3701 26.89C41.3701 24.49 42.0501 22.65 43.4101 21.37C44.7901 20.07 46.7201 19.42 49.2001 19.42C51.6801 19.42 53.5301 20.02 54.7501 21.22C55.9701 22.4 56.5801 24.21 56.5801 26.65C56.5801 31.75 54.0401 34.3 48.9601 34.3ZM50.2501 16.6C49.8901 16.16 49.7101 15.63 49.7101 15.01C49.7101 14.39 49.9001 13.87 50.2801 13.45C50.6801 13.03 51.2201 12.82 51.9001 12.82C52.6001 12.82 53.1501 13.01 53.5501 13.39C53.9701 13.75 54.1801 14.28 54.1801 14.98C54.1801 15.68 53.9801 16.24 53.5801 16.66C53.2001 17.06 52.6401 17.26 51.9001 17.26C51.1601 17.26 50.6101 17.04 50.2501 16.6ZM44.4601 16.6C44.1001 16.16 43.9201 15.63 43.9201 15.01C43.9201 14.39 44.1101 13.87 44.4901 13.45C44.8901 13.03 45.4301 12.82 46.1101 12.82C46.8101 12.82 47.3601 13.01 47.7601 13.39C48.1801 13.75 48.3901 14.28 48.3901 14.98C48.3901 15.68 48.1901 16.24 47.7901 16.66C47.4101 17.06 46.8501 17.26 46.1101 17.26C45.3701 17.26 44.8201 17.04 44.4601 16.6ZM57.4791 19.72L64.7091 19.72L64.7091 22.48C65.0291 21.56 65.5191 20.82 66.1791 20.26C66.8391 19.7 67.8391 19.42 69.1791 19.42C72.2791 19.42 73.8291 21.09 73.8291 24.43L73.8291 33.46L75.5091 33.46L75.5091 34L67.0191 34L67.0191 33.46L68.2491 33.46L68.2491 23.71C68.2491 22.51 68.1691 21.74 68.0091 21.4C67.8491 21.04 67.5591 20.86 67.1391 20.86C66.4991 20.86 65.9291 21.28 65.4291 22.12C64.9491 22.96 64.7091 23.98 64.7091 25.18L64.7091 33.46L65.9991 33.46L65.9991 34L57.4791 34L57.4791 33.46L59.1291 33.46L59.1291 20.26L57.4791 20.26L57.4791 19.72ZM74.2613 20.26L74.2613 19.72L82.9613 19.72L82.9613 20.26L81.3413 20.26L84.6113 30.22L88.0913 20.26L86.0813 20.26L86.0813 19.72L90.3113 19.72L90.3113 20.26L88.8113 20.26L83.2013 36.43C82.5413 38.31 81.8013 39.62 80.9813 40.36C80.1613 41.12 79.1613 41.5 77.9813 41.5C76.8013 41.5 75.8713 41.23 75.1913 40.69C74.5113 40.15 74.1713 39.46 74.1713 38.62C74.1713 37.78 74.3913 37.14 74.8313 36.7C75.2713 36.26 75.8513 36.04 76.5713 36.04C78.2313 36.04 79.0613 36.73 79.0613 38.11C79.0613 38.41 79.0013 38.77 78.8813 39.19L77.8313 39.19C77.6713 39.65 77.6513 40.03 77.7713 40.33C77.8913 40.63 78.1613 40.78 78.5813 40.78C79.4013 40.78 80.1313 40.37 80.7713 39.55C81.4113 38.75 82.0213 37.52 82.6013 35.86L83.2613 34L80.6213 34L75.4913 20.26L74.2613 20.26ZM90.0781 20.26L90.0781 19.72L99.0481 19.72L99.0481 20.26L97.1581 20.26L100.758 30.22L103.998 20.26L101.988 20.26L101.988 19.72L106.038 19.72L106.038 20.26L104.718 20.26L100.278 34L96.8581 34L91.3081 20.26L90.0781 20.26ZM112.637 26.95L113.507 26.95L113.507 24.64C113.507 22.74 113.397 21.47 113.177 20.83C112.977 20.17 112.577 19.84 111.977 19.84C111.617 19.84 111.287 19.94 110.987 20.14C110.707 20.32 110.567 20.58 110.567 20.92C110.567 21.24 110.627 21.57 110.747 21.91L111.497 21.91C111.657 22.33 111.737 22.84 111.737 23.44C111.737 24.02 111.487 24.53 110.987 24.97C110.487 25.39 109.857 25.6 109.097 25.6C107.377 25.6 106.517 24.77 106.517 23.11C106.517 20.65 108.607 19.42 112.787 19.42C115.167 19.42 116.807 19.83 117.707 20.65C118.627 21.45 119.087 22.93 119.087 25.09L119.087 31.18C119.087 32.22 119.377 32.74 119.957 32.74C120.637 32.74 121.037 31.71 121.157 29.65L121.607 29.68C121.527 31.44 121.197 32.65 120.617 33.31C120.037 33.97 119.087 34.3 117.767 34.3C115.367 34.3 113.987 33.56 113.627 32.08C113.367 32.84 112.977 33.4 112.457 33.76C111.937 34.12 111.177 34.3 110.177 34.3C107.217 34.3 105.737 33.09 105.737 30.67C105.737 29.25 106.297 28.28 107.417 27.76C108.557 27.22 110.297 26.95 112.637 26.95ZM111.437 30.64C111.437 31.68 111.487 32.35 111.587 32.65C111.707 32.95 111.917 33.1 112.217 33.1C112.537 33.1 112.827 32.85 113.087 32.35C113.367 31.83 113.507 31.12 113.507 30.22L113.507 27.43L113.297 27.43C112.057 27.43 111.437 28.34 111.437 30.16L111.437 30.64ZM129.132 19.72L129.132 31.42C129.132 34.7 128.562 37.2 127.422 38.92C126.302 40.64 124.462 41.5 121.902 41.5C120.242 41.5 119.032 41.17 118.272 40.51C117.492 39.85 117.102 39.08 117.102 38.2C117.102 37.32 117.362 36.64 117.882 36.16C118.402 35.7 119.052 35.47 119.832 35.47C120.612 35.47 121.202 35.68 121.602 36.1C121.982 36.54 122.172 37.02 122.172 37.54C122.172 38.06 122.112 38.56 121.992 39.04L120.852 39.04C120.532 39.58 120.492 40.04 120.732 40.42C120.952 40.8 121.362 40.99 121.962 40.99C122.582 40.99 123.002 40.64 123.222 39.94C123.442 39.26 123.552 37.84 123.552 35.68L123.552 20.26L121.602 20.26L121.602 19.72L129.132 19.72ZM126.282 17.65C125.222 17.65 124.462 17.38 124.002 16.84C123.562 16.3 123.342 15.63 123.342 14.83C123.342 14.03 123.582 13.37 124.062 12.85C124.562 12.33 125.312 12.07 126.312 12.07C127.312 12.07 128.072 12.31 128.592 12.79C129.112 13.25 129.372 13.92 129.372 14.8C129.372 15.66 129.122 16.35 128.622 16.87C128.122 17.39 127.342 17.65 126.282 17.65ZM138.418 26.95L139.288 26.95L139.288 24.64C139.288 22.74 139.178 21.47 138.958 20.83C138.758 20.17 138.358 19.84 137.758 19.84C137.398 19.84 137.068 19.94 136.768 20.14C136.488 20.32 136.348 20.58 136.348 20.92C136.348 21.24 136.408 21.57 136.528 21.91L137.278 21.91C137.438 22.33 137.518 22.84 137.518 23.44C137.518 24.02 137.268 24.53 136.768 24.97C136.268 25.39 135.638 25.6 134.878 25.6C133.158 25.6 132.298 24.77 132.298 23.11C132.298 20.65 134.388 19.42 138.568 19.42C140.948 19.42 142.588 19.83 143.488 20.65C144.408 21.45 144.868 22.93 144.868 25.09L144.868 31.18C144.868 32.22 145.158 32.74 145.738 32.74C146.418 32.74 146.818 31.71 146.938 29.65L147.388 29.68C147.308 31.44 146.978 32.65 146.398 33.31C145.818 33.97 144.868 34.3 143.548 34.3C141.148 34.3 139.768 33.56 139.408 32.08C139.148 32.84 138.758 33.4 138.238 33.76C137.718 34.12 136.958 34.3 135.958 34.3C132.998 34.3 131.518 33.09 131.518 30.67C131.518 29.25 132.078 28.28 133.198 27.76C134.338 27.22 136.078 26.95 138.418 26.95ZM137.218 30.64C137.218 31.68 137.268 32.35 137.368 32.65C137.488 32.95 137.698 33.1 137.998 33.1C138.318 33.1 138.608 32.85 138.868 32.35C139.148 31.83 139.288 31.12 139.288 30.22L139.288 27.43L139.078 27.43C137.838 27.43 137.218 28.34 137.218 30.16L137.218 30.64ZM136.558 17.59L138.448 11.86L139.858 11.56C140.478 11.42 140.948 11.5 141.268 11.8C141.608 12.08 141.778 12.47 141.778 12.97C141.778 13.45 141.488 13.95 140.908 14.47L136.888 17.8L136.558 17.59ZM147.743 19.72L154.973 19.72L154.973 22.48C155.293 21.56 155.783 20.82 156.443 20.26C157.103 19.7 158.103 19.42 159.443 19.42C162.543 19.42 164.093 21.09 164.093 24.43L164.093 33.46L165.773 33.46L165.773 34L157.283 34L157.283 33.46L158.513 33.46L158.513 23.71C158.513 22.51 158.433 21.74 158.273 21.4C158.113 21.04 157.823 20.86 157.403 20.86C156.763 20.86 156.193 21.28 155.693 22.12C155.213 22.96 154.973 23.98 154.973 25.18L154.973 33.46L156.263 33.46L156.263 34L147.743 34L147.743 33.46L149.393 33.46L149.393 20.26L147.743 20.26L147.743 19.72ZM166.049 11.5L173.399 11.5L173.399 33.46L175.079 33.46L175.079 34L166.169 34L166.169 33.46L167.819 33.46L167.819 12.04L166.049 12.04L166.049 11.5ZM185.351 28.09L185.351 25.54C185.351 23.6 185.241 22.19 185.021 21.31C184.821 20.41 184.341 19.96 183.581 19.96C183.141 19.96 182.781 20.09 182.501 20.35C182.241 20.59 182.051 21 181.931 21.58C181.751 22.48 181.661 23.85 181.661 25.69L181.661 28.03C181.661 30.21 181.721 31.52 181.841 31.96C181.981 32.4 182.121 32.76 182.261 33.04C182.481 33.52 182.911 33.76 183.551 33.76C184.331 33.76 184.841 33.31 185.081 32.41C185.261 31.77 185.351 30.33 185.351 28.09ZM183.491 34.3C180.991 34.3 179.101 33.66 177.821 32.38C176.541 31.1 175.901 29.27 175.901 26.89C175.901 24.49 176.581 22.65 177.941 21.37C179.321 20.07 181.251 19.42 183.731 19.42C186.211 19.42 188.061 20.02 189.281 21.22C190.501 22.4 191.111 24.21 191.111 26.65C191.111 31.75 188.571 34.3 183.491 34.3ZM181.511 17.59L183.401 11.86L184.811 11.56C185.431 11.42 185.901 11.5 186.221 11.8C186.561 12.08 186.731 12.47 186.731 12.97C186.731 13.45 186.441 13.95 185.861 14.47L181.841 17.8L181.511 17.59ZM201.76 34L201.76 33.46L203.14 33.46L199.75 26.5L199.18 26.65L199.18 33.46L200.56 33.46L200.56 34L191.95 34L191.95 33.46L193.6 33.46L193.6 12.04L191.83 12.04L191.83 11.5L199.18 11.5L199.18 26.05L199.66 25.87L206.41 20.26L203.59 20.26L203.59 19.72L209.5 19.72L209.5 20.26L207.4 20.26L203.83 23.29L209.02 33.46L210.1 33.46L210.1 34L201.76 34Z" fill="#FFFAEF"/>
</svg>
