<svg width="149" height="44" viewBox="0 0 149 44" fill="none" xmlns="http://www.w3.org/2000/svg">
<rect x="0.5" y="0.500015" width="148" height="43" rx="7.5" fill="#00563F" stroke="#FFFAEF"/>
<path d="M15.63 13L26.43 13L26.43 13.66L23.25 13.66L23.25 33.34L24.33 33.34C26.03 33.34 27.38 32.82 28.38 31.78C29.4 30.74 30.43 29.14 31.47 26.98L32.1 26.98L31.53 34L15.63 34L15.63 33.34L17.4 33.34L17.4 13.66L15.63 13.66L15.63 13ZM35.4211 17.59L37.3111 11.86L38.7211 11.56C39.3411 11.42 39.8111 11.5 40.1311 11.8C40.4711 12.08 40.6411 12.47 40.6411 12.97C40.6411 13.45 40.3511 13.95 39.7711 14.47L35.7511 17.8L35.4211 17.59ZM33.0511 19.72L40.4011 19.72L40.4011 33.46L42.0811 33.46L42.0811 34L33.1711 34L33.1711 33.46L34.8211 33.46L34.8211 20.26L33.0511 20.26L33.0511 19.72ZM51.0926 19.96C50.2126 19.96 49.5826 20.44 49.2026 21.4C48.8226 22.36 48.6326 23.95 48.6326 26.17L48.6326 27.73C48.6326 29.71 48.8526 31.13 49.2926 31.99C49.7326 32.85 50.5426 33.28 51.7226 33.28C52.9026 33.28 53.8426 32.88 54.5426 32.08C55.2426 31.28 55.6926 30.37 55.8926 29.35L56.4326 29.41C56.0526 31.13 55.3526 32.37 54.3326 33.13C53.2926 33.91 51.8626 34.3 50.0426 34.3C47.7226 34.3 45.9426 33.68 44.7026 32.44C43.4626 31.18 42.8426 29.35 42.8426 26.95C42.8426 24.53 43.5426 22.67 44.9426 21.37C46.3626 20.07 48.3326 19.42 50.8526 19.42C52.6326 19.42 53.9926 19.77 54.9326 20.47C55.8726 21.15 56.3426 22.01 56.3426 23.05C56.3426 24.09 56.1126 24.85 55.6526 25.33C55.2126 25.81 54.5926 26.05 53.7926 26.05C53.0126 26.05 52.3826 25.84 51.9026 25.42C51.4226 25 51.1826 24.38 51.1826 23.56C51.1826 23.2 51.2326 22.84 51.3326 22.48L52.3226 22.48C52.4626 22.08 52.5326 21.72 52.5326 21.4C52.5326 20.44 52.0526 19.96 51.0926 19.96ZM58.3945 25.66L58.3945 24.76L65.9545 24.76L65.9545 25.66L58.3945 25.66ZM86.5214 13L86.8214 20.53L86.2514 20.53C85.3714 17.87 84.5914 16.06 83.9114 15.1C83.2314 14.12 82.2514 13.63 80.9714 13.63L80.6114 13.63L80.6114 33.37L83.1614 33.37L83.1614 34L72.2114 34L72.2114 33.37L74.7614 33.37L74.7614 13.63L74.3714 13.63C73.0914 13.63 72.1014 14.14 71.4014 15.16C70.7014 16.16 69.9314 17.95 69.0914 20.53L68.5214 20.53L68.8214 13L86.5214 13ZM94.3228 34.3C91.7428 34.3 89.8028 33.64 88.5028 32.32C87.2228 30.98 86.5828 29.13 86.5828 26.77C86.5828 24.39 87.3028 22.57 88.7428 21.31C90.2028 20.05 92.0528 19.42 94.2928 19.42C98.8328 19.42 101.013 21.7 100.833 26.26L92.3728 26.26L92.3728 27.43C92.3728 29.39 92.6228 30.87 93.1228 31.87C93.6228 32.87 94.4928 33.37 95.7328 33.37C98.0528 33.37 99.5728 32.13 100.293 29.65L100.833 29.74C100.453 31.18 99.7628 32.3 98.7628 33.1C97.7828 33.9 96.3028 34.3 94.3228 34.3ZM92.4028 25.66L95.4928 25.66L95.4928 24.19C95.4928 22.57 95.3928 21.47 95.1928 20.89C95.0128 20.29 94.6328 19.99 94.0528 19.99C93.4928 19.99 93.0728 20.31 92.7928 20.95C92.5328 21.57 92.4028 22.65 92.4028 24.19L92.4028 25.66ZM110.302 19.96C109.422 19.96 108.792 20.44 108.412 21.4C108.032 22.36 107.842 23.95 107.842 26.17L107.842 27.73C107.842 29.71 108.062 31.13 108.502 31.99C108.942 32.85 109.752 33.28 110.932 33.28C112.112 33.28 113.052 32.88 113.752 32.08C114.452 31.28 114.902 30.37 115.102 29.35L115.642 29.41C115.262 31.13 114.562 32.37 113.542 33.13C112.502 33.91 111.072 34.3 109.252 34.3C106.932 34.3 105.152 33.68 103.912 32.44C102.672 31.18 102.052 29.35 102.052 26.95C102.052 24.53 102.752 22.67 104.152 21.37C105.572 20.07 107.542 19.42 110.062 19.42C111.842 19.42 113.202 19.77 114.142 20.47C115.082 21.15 115.552 22.01 115.552 23.05C115.552 24.09 115.322 24.85 114.862 25.33C114.422 25.81 113.802 26.05 113.002 26.05C112.222 26.05 111.592 25.84 111.112 25.42C110.632 25 110.392 24.38 110.392 23.56C110.392 23.2 110.442 22.84 110.542 22.48L111.532 22.48C111.672 22.08 111.742 21.72 111.742 21.4C111.742 20.44 111.262 19.96 110.302 19.96ZM116.111 11.5L123.341 11.5L123.341 22.48C123.661 21.56 124.151 20.82 124.811 20.26C125.471 19.7 126.471 19.42 127.811 19.42C130.911 19.42 132.461 21.09 132.461 24.43L132.461 33.46L134.141 33.46L134.141 34L125.651 34L125.651 33.46L126.881 33.46L126.881 23.71C126.881 22.51 126.801 21.74 126.641 21.4C126.481 21.04 126.191 20.86 125.771 20.86C125.131 20.86 124.561 21.28 124.061 22.12C123.581 22.96 123.341 23.98 123.341 25.18L123.341 33.46L124.631 33.46L124.631 34L116.111 34L116.111 33.46L117.761 33.46L117.761 12.04L116.111 12.04L116.111 11.5Z" fill="#FFFAEF"/>
</svg>
