<svg width="252" height="44" viewBox="0 0 252 44" fill="none" xmlns="http://www.w3.org/2000/svg">
<rect x="0.5" y="0.500061" width="251" height="43" rx="7.5" fill="#077AAF" stroke="#FFFAEF"/>
<path d="M34.44 13L42.45 13L42.45 13.57L40.8 13.57L40.8 33.43L42.45 33.43L42.45 34L33.3 34L33.3 33.43L34.95 33.43L34.95 14.68L34.83 14.68L30.33 34L26.58 34L21.3 14.59L21.18 14.59L21.18 33.43L22.83 33.43L22.83 34L18.75 34L18.75 33.43L20.4 33.43L20.4 13.57L18.75 13.57L18.75 13L26.85 13L30.84 28.45L34.44 13ZM60.7523 34L53.9123 34L53.5823 31.81C53.2623 32.61 52.7823 33.23 52.1423 33.67C51.5223 34.09 50.5923 34.3 49.3523 34.3C46.2523 34.3 44.7023 32.63 44.7023 29.29L44.7023 20.26L43.0223 20.26L43.0223 19.72L50.2823 19.72L50.2823 30.01C50.2823 31.21 50.3623 32 50.5223 32.38C50.7023 32.76 51.0423 32.95 51.5423 32.95C52.0623 32.95 52.5223 32.64 52.9223 32.02C53.3223 31.4 53.5223 30.54 53.5223 29.44L53.5223 20.26L52.1423 20.26L52.1423 19.72L59.1023 19.72L59.1023 33.46L60.7523 33.46L60.7523 34ZM52.9223 17.59L54.8123 11.86L56.2223 11.56C56.8423 11.42 57.3123 11.5 57.6323 11.8C57.9723 12.08 58.1423 12.47 58.1423 12.97C58.1423 13.45 57.8523 13.95 57.2723 14.47L53.2523 17.8L52.9223 17.59ZM48.4823 17.62L50.0723 11.8L51.4523 11.41C52.0523 11.25 52.5223 11.31 52.8623 11.59C53.2223 11.85 53.4123 12.23 53.4323 12.73C53.4523 13.21 53.1923 13.72 52.6523 14.26L48.8123 17.8L48.4823 17.62ZM60.1582 20.26L60.1582 19.72L69.1282 19.72L69.1282 20.26L67.2382 20.26L70.8382 30.22L74.0782 20.26L72.0682 20.26L72.0682 19.72L76.1182 19.72L76.1182 20.26L74.7982 20.26L70.3582 34L66.9382 34L61.3882 20.26L60.1582 20.26ZM83.5533 34.3C80.9733 34.3 79.0333 33.64 77.7333 32.32C76.4533 30.98 75.8133 29.13 75.8133 26.77C75.8133 24.39 76.5333 22.57 77.9733 21.31C79.4333 20.05 81.2833 19.42 83.5233 19.42C88.0633 19.42 90.2433 21.7 90.0633 26.26L81.6033 26.26L81.6033 27.43C81.6033 29.39 81.8533 30.87 82.3533 31.87C82.8533 32.87 83.7233 33.37 84.9633 33.37C87.2833 33.37 88.8033 32.13 89.5233 29.65L90.0633 29.74C89.6833 31.18 88.9933 32.3 87.9933 33.1C87.0133 33.9 85.5333 34.3 83.5533 34.3ZM84.7233 25.66L84.7233 24.19C84.7233 22.57 84.6233 21.47 84.4233 20.89C84.2433 20.29 83.8633 19.99 83.2833 19.99C82.7233 19.99 82.3033 20.31 82.0233 20.95C81.7633 21.57 81.6333 22.65 81.6333 24.19L81.6333 25.66L84.7233 25.66ZM81.3033 17.59L83.1933 11.86L84.6033 11.56C85.2233 11.42 85.6933 11.5 86.0133 11.8C86.3533 12.08 86.5233 12.47 86.5233 12.97C86.5233 13.45 86.2333 13.95 85.6533 14.47L81.6333 17.8L81.3033 17.59ZM91.822 34.3L91.822 28.93L92.182 28.93C92.702 30.67 93.402 31.89 94.282 32.59C95.162 33.29 96.262 33.64 97.582 33.64C99.622 33.64 100.642 32.99 100.642 31.69C100.642 31.13 100.392 30.71 99.892 30.43C99.112 29.99 98.112 29.65 96.892 29.41C95.532 29.05 94.392 28.57 93.472 27.97C92.372 27.25 91.822 26.11 91.822 24.55C91.822 22.99 92.302 21.75 93.262 20.83C94.222 19.89 95.502 19.42 97.102 19.42C98.082 19.42 99.092 19.65 100.132 20.11C100.512 20.27 100.802 20.35 101.002 20.35C101.202 20.35 101.372 20.28 101.512 20.14C101.652 20 101.822 19.74 102.022 19.36L102.352 19.36L102.352 23.95L101.992 23.95C100.972 21.35 99.392 20.05 97.252 20.05C96.312 20.05 95.612 20.22 95.152 20.56C94.692 20.88 94.462 21.29 94.462 21.79C94.462 22.09 94.532 22.33 94.672 22.51C94.812 22.67 94.922 22.79 95.002 22.87C95.082 22.95 95.212 23.04 95.392 23.14C95.572 23.22 95.722 23.29 95.842 23.35C95.962 23.39 96.142 23.45 96.382 23.53C96.642 23.61 96.832 23.66 96.952 23.68C98.312 24.02 99.292 24.32 99.892 24.58C100.492 24.82 101.062 25.12 101.602 25.48C102.702 26.24 103.252 27.47 103.252 29.17C103.252 30.85 102.752 32.13 101.752 33.01C100.752 33.87 99.382 34.3 97.642 34.3C96.402 34.3 95.202 34.01 94.042 33.43C93.802 33.27 93.612 33.19 93.472 33.19C93.032 33.19 92.602 33.56 92.182 34.3L91.822 34.3ZM117.299 19.72L117.299 20.26L110.189 33.46L110.579 33.46C112.259 33.46 113.579 33.02 114.539 32.14C115.499 31.26 116.249 29.83 116.789 27.85L117.209 27.85L116.729 34L104.129 34L104.129 33.55L111.359 20.26L111.029 20.26C109.009 20.26 107.599 20.59 106.799 21.25C106.019 21.91 105.319 23.32 104.699 25.48L104.309 25.48L104.699 19.72L117.299 19.72ZM126.532 34.3C123.952 34.3 122.012 33.64 120.712 32.32C119.432 30.98 118.792 29.13 118.792 26.77C118.792 24.39 119.512 22.57 120.952 21.31C122.412 20.05 124.262 19.42 126.502 19.42C131.042 19.42 133.222 21.7 133.042 26.26L124.582 26.26L124.582 27.43C124.582 29.39 124.832 30.87 125.332 31.87C125.832 32.87 126.702 33.37 127.942 33.37C130.262 33.37 131.782 32.13 132.502 29.65L133.042 29.74C132.662 31.18 131.972 32.3 130.972 33.1C129.992 33.9 128.512 34.3 126.532 34.3ZM124.612 25.66L127.702 25.66L127.702 24.19C127.702 22.57 127.602 21.47 127.402 20.89C127.222 20.29 126.842 19.99 126.262 19.99C125.702 19.99 125.282 20.31 125.002 20.95C124.742 21.57 124.612 22.65 124.612 24.19L124.612 25.66ZM135.611 29.71L135.611 20.26L133.961 20.26L133.961 19.72L135.611 19.72L135.611 15.85L141.191 14.47L141.191 19.72L145.091 19.72L145.091 20.26L141.191 20.26L141.191 30.37C141.191 31.31 141.281 32 141.461 32.44C141.661 32.88 142.061 33.1 142.661 33.1C143.261 33.1 143.781 32.8 144.221 32.2C144.681 31.6 144.981 30.78 145.121 29.74L145.631 29.8C145.471 31.18 145.031 32.28 144.311 33.1C143.591 33.9 142.401 34.3 140.741 34.3C139.081 34.3 137.811 33.97 136.931 33.31C136.051 32.65 135.611 31.45 135.611 29.71ZM150.327 17.65C149.267 17.65 148.507 17.38 148.047 16.84C147.607 16.3 147.387 15.63 147.387 14.83C147.387 14.03 147.627 13.37 148.107 12.85C148.607 12.33 149.357 12.07 150.357 12.07C151.357 12.07 152.117 12.31 152.637 12.79C153.157 13.25 153.417 13.92 153.417 14.8C153.417 15.66 153.167 16.35 152.667 16.87C152.167 17.39 151.387 17.65 150.327 17.65ZM145.797 19.72L153.147 19.72L153.147 33.46L154.827 33.46L154.827 34L145.917 34L145.917 33.46L147.567 33.46L147.567 20.26L145.797 20.26L145.797 19.72ZM170.849 20.56C170.109 20.56 169.459 21.04 168.899 22C168.339 22.96 168.059 24.1 168.059 25.42L168.059 33.46L170.189 33.46L170.189 34L160.829 34L160.829 33.46L162.479 33.46L162.479 20.26L160.829 20.26L160.829 19.72L168.059 19.72L168.059 22.6C168.319 21.58 168.819 20.8 169.559 20.26C170.299 19.7 171.139 19.42 172.079 19.42C173.019 19.42 173.779 19.69 174.359 20.23C174.959 20.75 175.259 21.5 175.259 22.48C175.259 23.44 175.039 24.18 174.599 24.7C174.159 25.22 173.479 25.48 172.559 25.48C171.659 25.48 170.989 25.18 170.549 24.58C170.129 23.98 170.079 23.15 170.399 22.09L171.479 22.09C171.979 21.07 171.769 20.56 170.849 20.56ZM185.226 28.09L185.226 25.54C185.226 23.6 185.116 22.19 184.896 21.31C184.696 20.41 184.216 19.96 183.456 19.96C183.016 19.96 182.656 20.09 182.376 20.35C182.116 20.59 181.926 21 181.806 21.58C181.626 22.48 181.536 23.85 181.536 25.69L181.536 28.03C181.536 30.21 181.596 31.52 181.716 31.96C181.856 32.4 181.996 32.76 182.136 33.04C182.356 33.52 182.786 33.76 183.426 33.76C184.206 33.76 184.716 33.31 184.956 32.41C185.136 31.77 185.226 30.33 185.226 28.09ZM183.366 34.3C180.866 34.3 178.976 33.66 177.696 32.38C176.416 31.1 175.776 29.27 175.776 26.89C175.776 24.49 176.456 22.65 177.816 21.37C179.196 20.07 181.126 19.42 183.606 19.42C186.086 19.42 187.936 20.02 189.156 21.22C190.376 22.4 190.986 24.21 190.986 26.65C190.986 31.75 188.446 34.3 183.366 34.3ZM190.764 20.26L190.764 19.72L199.734 19.72L199.734 20.26L197.844 20.26L201.444 30.22L204.684 20.26L202.674 20.26L202.674 19.72L206.724 19.72L206.724 20.26L205.404 20.26L200.964 34L197.544 34L191.994 20.26L190.764 20.26ZM213.322 26.95L214.192 26.95L214.192 24.64C214.192 22.74 214.082 21.47 213.862 20.83C213.662 20.17 213.262 19.84 212.662 19.84C212.302 19.84 211.972 19.94 211.672 20.14C211.392 20.32 211.252 20.58 211.252 20.92C211.252 21.24 211.312 21.57 211.432 21.91L212.182 21.91C212.342 22.33 212.422 22.84 212.422 23.44C212.422 24.02 212.172 24.53 211.672 24.97C211.172 25.39 210.542 25.6 209.782 25.6C208.062 25.6 207.202 24.77 207.202 23.11C207.202 20.65 209.292 19.42 213.472 19.42C215.852 19.42 217.492 19.83 218.392 20.65C219.312 21.45 219.772 22.93 219.772 25.09L219.772 31.18C219.772 32.22 220.062 32.74 220.642 32.74C221.322 32.74 221.722 31.71 221.842 29.65L222.292 29.68C222.212 31.44 221.882 32.65 221.302 33.31C220.722 33.97 219.772 34.3 218.452 34.3C216.052 34.3 214.672 33.56 214.312 32.08C214.052 32.84 213.662 33.4 213.142 33.76C212.622 34.12 211.862 34.3 210.862 34.3C207.902 34.3 206.422 33.09 206.422 30.67C206.422 29.25 206.982 28.28 208.102 27.76C209.242 27.22 210.982 26.95 213.322 26.95ZM212.122 30.64C212.122 31.68 212.172 32.35 212.272 32.65C212.392 32.95 212.602 33.1 212.902 33.1C213.222 33.1 213.512 32.85 213.772 32.35C214.052 31.83 214.192 31.12 214.192 30.22L214.192 27.43L213.982 27.43C212.742 27.43 212.122 28.34 212.122 30.16L212.122 30.64ZM223.648 29.71L223.648 20.26L221.998 20.26L221.998 19.72L223.648 19.72L223.648 15.85L229.228 14.47L229.228 19.72L233.128 19.72L233.128 20.26L229.228 20.26L229.228 30.37C229.228 31.31 229.318 32 229.498 32.44C229.698 32.88 230.098 33.1 230.698 33.1C231.298 33.1 231.818 32.8 232.258 32.2C232.718 31.6 233.018 30.78 233.158 29.74L233.668 29.8C233.508 31.18 233.068 32.28 232.348 33.1C231.628 33.9 230.438 34.3 228.778 34.3C227.118 34.3 225.848 33.97 224.968 33.31C224.088 32.65 223.648 31.45 223.648 29.71Z" fill="#FFFAEF"/>
</svg>
