<svg width="256" height="44" viewBox="0 0 256 44" fill="none" xmlns="http://www.w3.org/2000/svg">
<rect x="0.5" y="0.5" width="255" height="43" rx="7.5" fill="#9BC2D3" stroke="#FFFAEF"/>
<path d="M32.03 24.73L32.03 22.51C32.03 18.85 31.85 16.54 31.49 15.58C31.09 14.48 30.52 13.8 29.78 13.54C29.36 13.38 28.85 13.3 28.25 13.3C27.65 13.3 27.13 13.38 26.69 13.54C26.27 13.7 25.92 13.98 25.64 14.38C25.36 14.78 25.13 15.2 24.95 15.64C24.79 16.08 24.66 16.7 24.56 17.5C24.44 18.66 24.38 20.37 24.38 22.63L24.38 24.79C24.38 27.23 24.47 28.97 24.65 30.01C24.85 31.03 25.09 31.76 25.37 32.2C25.99 33.18 26.95 33.67 28.25 33.67C29.83 33.67 30.85 33.01 31.31 31.69C31.79 30.35 32.03 28.03 32.03 24.73ZM28.19 34.3C24.85 34.3 22.35 33.4 20.69 31.6C19.05 29.78 18.23 27.16 18.23 23.74C18.23 20.3 19.11 17.6 20.87 15.64C22.65 13.66 25.16 12.67 28.4 12.67C31.64 12.67 34.08 13.61 35.72 15.49C37.38 17.35 38.21 20 38.21 23.44C38.21 26.88 37.37 29.55 35.69 31.45C34.03 33.35 31.53 34.3 28.19 34.3ZM29.48 10.96C29.12 10.52 28.94 9.99 28.94 9.37C28.94 8.75 29.13 8.23 29.51 7.81C29.91 7.39 30.45 7.18 31.13 7.18C31.83 7.18 32.38 7.37 32.78 7.75C33.2 8.11 33.41 8.64 33.41 9.34C33.41 10.04 33.21 10.6 32.81 11.02C32.43 11.42 31.87 11.62 31.13 11.62C30.39 11.62 29.84 11.4 29.48 10.96ZM23.69 10.96C23.33 10.52 23.15 9.99 23.15 9.37C23.15 8.75 23.34 8.23 23.72 7.81C24.12 7.39 24.66 7.18 25.34 7.18C26.04 7.18 26.59 7.37 26.99 7.75C27.41 8.11 27.62 8.64 27.62 9.34C27.62 10.04 27.42 10.6 27.02 11.02C26.64 11.42 26.08 11.62 25.34 11.62C24.6 11.62 24.05 11.4 23.69 10.96ZM39.8014 19.72L47.0314 19.72L47.0314 22.48C47.3514 21.56 47.8414 20.82 48.5014 20.26C49.1614 19.7 50.1614 19.42 51.5014 19.42C54.6014 19.42 56.1514 21.09 56.1514 24.43L56.1514 33.46H57.8314V34L49.3414 34V33.46H50.5714L50.5714 23.71C50.5714 22.51 50.4914 21.74 50.3314 21.4C50.1714 21.04 49.8814 20.86 49.4614 20.86C48.8214 20.86 48.2514 21.28 47.7514 22.12C47.2714 22.96 47.0314 23.98 47.0314 25.18L47.0314 33.46L48.3214 33.46V34L39.8014 34V33.46H41.4514L41.4514 20.26L39.8014 20.26V19.72ZM65.4277 26.95L66.2977 26.95L66.2977 24.64C66.2977 22.74 66.1877 21.47 65.9677 20.83C65.7677 20.17 65.3677 19.84 64.7677 19.84C64.4077 19.84 64.0777 19.94 63.7777 20.14C63.4977 20.32 63.3577 20.58 63.3577 20.92C63.3577 21.24 63.4177 21.57 63.5377 21.91L64.2877 21.91C64.4477 22.33 64.5277 22.84 64.5277 23.44C64.5277 24.02 64.2777 24.53 63.7777 24.97C63.2777 25.39 62.6477 25.6 61.8877 25.6C60.1677 25.6 59.3077 24.77 59.3077 23.11C59.3077 20.65 61.3977 19.42 65.5777 19.42C67.9577 19.42 69.5977 19.83 70.4977 20.65C71.4177 21.45 71.8777 22.93 71.8777 25.09L71.8777 31.18C71.8777 32.22 72.1677 32.74 72.7477 32.74C73.4277 32.74 73.8277 31.71 73.9477 29.65L74.3977 29.68C74.3177 31.44 73.9877 32.65 73.4077 33.31C72.8277 33.97 71.8777 34.3 70.5577 34.3C68.1577 34.3 66.7777 33.56 66.4177 32.08C66.1577 32.84 65.7677 33.4 65.2477 33.76C64.7277 34.12 63.9677 34.3 62.9677 34.3C60.0077 34.3 58.5277 33.09 58.5277 30.67C58.5277 29.25 59.0877 28.28 60.2077 27.76C61.3477 27.22 63.0877 26.95 65.4277 26.95ZM64.2277 30.64C64.2277 31.68 64.2777 32.35 64.3777 32.65C64.4977 32.95 64.7077 33.1 65.0077 33.1C65.3277 33.1 65.6177 32.85 65.8777 32.35C66.1577 31.83 66.2977 31.12 66.2977 30.22L66.2977 27.43H66.0877C64.8477 27.43 64.2277 28.34 64.2277 30.16V30.64ZM63.5677 17.59L65.4577 11.86L66.8677 11.56C67.4877 11.42 67.9577 11.5 68.2777 11.8C68.6177 12.08 68.7877 12.47 68.7877 12.97C68.7877 13.45 68.4977 13.95 67.9177 14.47L63.8977 17.8L63.5677 17.59ZM74.5726 11.5L81.9226 11.5L81.9226 33.46H83.6026V34L74.6926 34V33.46H76.3426L76.3426 12.04L74.5726 12.04V11.5ZM84.0648 11.5L91.4148 11.5L91.4148 33.46H93.0948V34L84.1848 34V33.46H85.8348L85.8348 12.04L84.0648 12.04V11.5ZM103.367 28.09V25.54C103.367 23.6 103.257 22.19 103.037 21.31C102.837 20.41 102.357 19.96 101.597 19.96C101.157 19.96 100.797 20.09 100.517 20.35C100.257 20.59 100.067 21 99.947 21.58C99.767 22.48 99.677 23.85 99.677 25.69V28.03C99.677 30.21 99.737 31.52 99.857 31.96C99.997 32.4 100.137 32.76 100.277 33.04C100.497 33.52 100.927 33.76 101.567 33.76C102.347 33.76 102.857 33.31 103.097 32.41C103.277 31.77 103.367 30.33 103.367 28.09ZM101.507 34.3C99.007 34.3 97.117 33.66 95.837 32.38C94.557 31.1 93.917 29.27 93.917 26.89C93.917 24.49 94.597 22.65 95.957 21.37C97.337 20.07 99.267 19.42 101.747 19.42C104.227 19.42 106.077 20.02 107.297 21.22C108.517 22.4 109.127 24.21 109.127 26.65C109.127 31.75 106.587 34.3 101.507 34.3ZM99.527 17.59L101.417 11.86L102.827 11.56C103.447 11.42 103.917 11.5 104.237 11.8C104.577 12.08 104.747 12.47 104.747 12.97C104.747 13.45 104.457 13.95 103.877 14.47L99.857 17.8L99.527 17.59ZM123.757 19.96C122.877 19.96 122.247 20.44 121.867 21.4C121.487 22.36 121.297 23.95 121.297 26.17V27.73C121.297 29.71 121.517 31.13 121.957 31.99C122.397 32.85 123.207 33.28 124.387 33.28C125.567 33.28 126.507 32.88 127.207 32.08C127.907 31.28 128.357 30.37 128.557 29.35L129.097 29.41C128.717 31.13 128.017 32.37 126.997 33.13C125.957 33.91 124.527 34.3 122.707 34.3C120.387 34.3 118.607 33.68 117.367 32.44C116.127 31.18 115.507 29.35 115.507 26.95C115.507 24.53 116.207 22.67 117.607 21.37C119.027 20.07 120.997 19.42 123.517 19.42C125.297 19.42 126.657 19.77 127.597 20.47C128.537 21.15 129.007 22.01 129.007 23.05C129.007 24.09 128.777 24.85 128.317 25.33C127.877 25.81 127.257 26.05 126.457 26.05C125.677 26.05 125.047 25.84 124.567 25.42C124.087 25 123.847 24.38 123.847 23.56C123.847 23.2 123.897 22.84 123.997 22.48H124.987C125.127 22.08 125.197 21.72 125.197 21.4C125.197 20.44 124.717 19.96 123.757 19.96ZM134.269 17.65C133.209 17.65 132.449 17.38 131.989 16.84C131.549 16.3 131.329 15.63 131.329 14.83C131.329 14.03 131.569 13.37 132.049 12.85C132.549 12.33 133.299 12.07 134.299 12.07C135.299 12.07 136.059 12.31 136.579 12.79C137.099 13.25 137.359 13.92 137.359 14.8C137.359 15.66 137.109 16.35 136.609 16.87C136.109 17.39 135.329 17.65 134.269 17.65ZM129.739 19.72L137.089 19.72L137.089 33.46L138.769 33.46V34L129.859 34V33.46L131.509 33.46L131.509 20.26L129.739 20.26V19.72ZM149.19 34V33.46H150.57L147.18 26.5L146.61 26.65L146.61 33.46H147.99V34L139.38 34V33.46H141.03L141.03 12.04L139.26 12.04V11.5L146.61 11.5V26.05L147.09 25.87L153.84 20.26L151.02 20.26V19.72L156.93 19.72V20.26L154.83 20.26L151.26 23.29L156.45 33.46H157.53V34L149.19 34ZM167.794 34V33.46H169.174L165.784 26.5L165.214 26.65L165.214 33.46H166.594V34L157.984 34V33.46H159.634L159.634 12.04L157.864 12.04V11.5L165.214 11.5V26.05L165.694 25.87L172.444 20.26L169.624 20.26V19.72L175.534 19.72V20.26L173.434 20.26L169.864 23.29L175.054 33.46H176.134V34L167.794 34ZM183.715 34.3C181.135 34.3 179.195 33.64 177.895 32.32C176.615 30.98 175.975 29.13 175.975 26.77C175.975 24.39 176.695 22.57 178.135 21.31C179.595 20.05 181.445 19.42 183.685 19.42C188.225 19.42 190.405 21.7 190.225 26.26L181.765 26.26L181.765 27.43C181.765 29.39 182.015 30.87 182.515 31.87C183.015 32.87 183.885 33.37 185.125 33.37C187.445 33.37 188.965 32.13 189.685 29.65L190.225 29.74C189.845 31.18 189.155 32.3 188.155 33.1C187.175 33.9 185.695 34.3 183.715 34.3ZM181.795 25.66L184.885 25.66V24.19C184.885 22.57 184.785 21.47 184.585 20.89C184.405 20.29 184.025 19.99 183.445 19.99C182.885 19.99 182.465 20.31 182.185 20.95C181.925 21.57 181.795 22.65 181.795 24.19V25.66ZM195.704 17.65C194.644 17.65 193.884 17.38 193.424 16.84C192.984 16.3 192.764 15.63 192.764 14.83C192.764 14.03 193.004 13.37 193.484 12.85C193.984 12.33 194.734 12.07 195.734 12.07C196.734 12.07 197.494 12.31 198.014 12.79C198.534 13.25 198.794 13.92 198.794 14.8C198.794 15.66 198.544 16.35 198.044 16.87C197.544 17.39 196.764 17.65 195.704 17.65ZM191.174 19.72L198.524 19.72L198.524 33.46H200.204V34L191.294 34V33.46H192.944L192.944 20.26L191.174 20.26V19.72ZM200.876 19.72L208.106 19.72V22.48C208.426 21.56 208.916 20.82 209.576 20.26C210.236 19.7 211.236 19.42 212.576 19.42C215.676 19.42 217.226 21.09 217.226 24.43L217.226 33.46H218.906V34L210.416 34V33.46L211.646 33.46L211.646 23.71C211.646 22.51 211.566 21.74 211.406 21.4C211.246 21.04 210.956 20.86 210.536 20.86C209.896 20.86 209.326 21.28 208.826 22.12C208.346 22.96 208.106 23.98 208.106 25.18L208.106 33.46H209.396V34L200.876 34V33.46L202.526 33.46L202.526 20.26L200.876 20.26V19.72ZM229.112 34V33.46L230.492 33.46L227.102 26.5L226.532 26.65L226.532 33.46L227.912 33.46V34L219.302 34V33.46H220.952L220.952 12.04L219.182 12.04V11.5L226.532 11.5V26.05L227.012 25.87L233.762 20.26L230.942 20.26V19.72L236.852 19.72V20.26L234.752 20.26L231.182 23.29L236.372 33.46H237.452V34L229.112 34Z" fill="#FFFAEF"/>
</svg>
