<svg width="16" height="16" viewBox="0 0 16 16" fill="none" xmlns="http://www.w3.org/2000/svg">
<g opacity="0.61">
<path d="M4.5 8.5H11.5C11.7652 8.5 12.0195 8.60543 12.207 8.79297C12.3946 8.9805 12.5 9.23478 12.5 9.5V10C12.5 11.6362 10.9265 13.5 8 13.5C5.07353 13.5 3.5 11.6362 3.5 10V9.5C3.5 9.23478 3.60543 8.98051 3.79297 8.79297C3.98051 8.60543 4.23478 8.5 4.5 8.5ZM8 2C8.59674 2 9.16886 2.23722 9.59082 2.65918C10.0128 3.08114 10.25 3.65326 10.25 4.25C10.25 4.84674 10.0128 5.41886 9.59082 5.84082C9.16886 6.26278 8.59674 6.5 8 6.5C7.40326 6.5 6.83114 6.26278 6.40918 5.84082C5.98722 5.41886 5.75 4.84674 5.75 4.25C5.75 3.65326 5.98722 3.08114 6.40918 2.65918C6.83114 2.23722 7.40326 2 8 2Z" fill="#144DD6" stroke="#006188"/>
</g>
</svg>
