<svg width="228" height="43" viewBox="0 0 228 43" fill="none" xmlns="http://www.w3.org/2000/svg">
<rect x="0.5" y="0.5" width="227" height="42" rx="7.5" fill="#C50225" stroke="#FFFAEF"/>
<path d="M23.84 23.38L22.25 23.38L22.25 33.43L24.2 33.43L24.2 34L14.45 34L14.45 33.43L16.4 33.43L16.4 13.57L14.45 13.57L14.45 13L23.51 13C26.11 13 27.95 13.14 29.03 13.42C30.13 13.68 30.9 14 31.34 14.38C32.3 15.16 32.78 16.4 32.78 18.1C32.78 19.8 32.36 21.02 31.52 21.76C30.68 22.48 29.4 22.91 27.68 23.05L27.68 23.14C29.3 23.36 30.43 23.84 31.07 24.58C31.71 25.32 32.03 26.56 32.03 28.3L32.03 29.89C32.03 30.93 32.08 31.63 32.18 31.99C32.3 32.35 32.54 32.53 32.9 32.53C33.26 32.53 33.54 32.37 33.74 32.05C33.96 31.71 34.16 31.01 34.34 29.95L34.85 30.01C34.63 31.71 34.24 32.85 33.68 33.43C33.14 34.01 32.05 34.3 30.41 34.3C28.77 34.3 27.6 33.92 26.9 33.16C26.22 32.38 25.88 30.93 25.88 28.81L25.88 26.62C25.88 25.5 25.73 24.68 25.43 24.16C25.15 23.64 24.62 23.38 23.84 23.38ZM22.25 13.57L22.25 22.81L23.21 22.81C24.35 22.81 25.19 22.46 25.73 21.76C26.29 21.06 26.57 19.92 26.57 18.34L26.57 17.47C26.57 15.89 26.3 14.85 25.76 14.35C25.24 13.83 24.4 13.57 23.24 13.57L22.25 13.57ZM42.9746 26.95L43.8446 26.95L43.8446 24.64C43.8446 22.74 43.7346 21.47 43.5146 20.83C43.3146 20.17 42.9146 19.84 42.3146 19.84C41.9546 19.84 41.6246 19.94 41.3246 20.14C41.0446 20.32 40.9046 20.58 40.9046 20.92C40.9046 21.24 40.9646 21.57 41.0846 21.91L41.8346 21.91C41.9946 22.33 42.0746 22.84 42.0746 23.44C42.0746 24.02 41.8246 24.53 41.3246 24.97C40.8246 25.39 40.1946 25.6 39.4346 25.6C37.7146 25.6 36.8546 24.77 36.8546 23.11C36.8546 20.65 38.9446 19.42 43.1246 19.42C45.5046 19.42 47.1446 19.83 48.0446 20.65C48.9646 21.45 49.4246 22.93 49.4246 25.09L49.4246 31.18C49.4246 32.22 49.7146 32.74 50.2946 32.74C50.9746 32.74 51.3746 31.71 51.4946 29.65L51.9446 29.68C51.8646 31.44 51.5346 32.65 50.9546 33.31C50.3746 33.97 49.4246 34.3 48.1046 34.3C45.7046 34.3 44.3246 33.56 43.9646 32.08C43.7046 32.84 43.3146 33.4 42.7946 33.76C42.2746 34.12 41.5146 34.3 40.5146 34.3C37.5546 34.3 36.0746 33.09 36.0746 30.67C36.0746 29.25 36.6346 28.28 37.7546 27.76C38.8946 27.22 40.6346 26.95 42.9746 26.95ZM41.7746 30.64C41.7746 31.68 41.8246 32.35 41.9246 32.65C42.0446 32.95 42.2546 33.1 42.5546 33.1C42.8746 33.1 43.1646 32.85 43.4246 32.35C43.7046 31.83 43.8446 31.12 43.8446 30.22L43.8446 27.43L43.6346 27.43C42.3946 27.43 41.7746 28.34 41.7746 30.16L41.7746 30.64ZM52.2995 19.72L59.5295 19.72L59.5295 22.48C59.8495 21.56 60.3395 20.82 60.9995 20.26C61.6595 19.7 62.6595 19.42 63.9995 19.42C67.0995 19.42 68.6495 21.09 68.6495 24.43L68.6495 33.46L70.3295 33.46L70.3295 34L61.8395 34L61.8395 33.46L63.0695 33.46L63.0695 23.71C63.0695 22.51 62.9895 21.74 62.8295 21.4C62.6695 21.04 62.3795 20.86 61.9595 20.86C61.3195 20.86 60.7495 21.28 60.2495 22.12C59.7695 22.96 59.5295 23.98 59.5295 25.18L59.5295 33.46L60.8195 33.46L60.8195 34L52.2995 34L52.2995 33.46L53.9495 33.46L53.9495 20.26L52.2995 20.26L52.2995 19.72ZM82.7558 18.16L83.5958 17.65C83.7158 17.03 83.4758 16.72 82.8758 16.72C82.0158 16.72 81.5858 17.38 81.5858 18.7C81.5858 19.22 81.6558 19.82 81.7958 20.5C83.3158 21.52 84.0758 22.83 84.0758 24.43C84.0758 26.01 83.5258 27.24 82.4258 28.12C81.3258 29 79.8358 29.44 77.9558 29.44C77.1758 29.44 76.3658 29.36 75.5258 29.2C74.6458 29.76 74.2058 30.18 74.2058 30.46C74.2058 30.74 74.8458 30.88 76.1258 30.88L79.1858 30.88C83.7258 30.88 85.9958 32.51 85.9958 35.77C85.9958 37.53 85.3058 38.92 83.9258 39.94C82.5658 40.98 80.4358 41.5 77.5358 41.5C72.5958 41.5 70.1258 40.43 70.1258 38.29C70.1258 37.13 70.8958 36.33 72.4358 35.89L74.2358 36.7C74.0758 37.28 73.9958 37.83 73.9958 38.35C73.9958 40.07 75.2758 40.93 77.8358 40.93C79.3958 40.93 80.5958 40.64 81.4358 40.06C82.2758 39.48 82.6958 38.76 82.6958 37.9C82.6958 37.04 82.4358 36.46 81.9158 36.16C81.4158 35.88 80.4058 35.74 78.8858 35.74L75.9758 35.74C74.3558 35.74 73.1958 35.47 72.4958 34.93C71.7958 34.39 71.4458 33.73 71.4458 32.95C71.4458 32.15 71.6958 31.49 72.1958 30.97C72.6958 30.43 73.5858 29.77 74.8658 28.99C72.5458 28.33 71.3858 26.81 71.3858 24.43C71.3858 22.93 71.9258 21.72 73.0058 20.8C74.0858 19.88 75.7058 19.42 77.8658 19.42C79.1658 19.42 80.2758 19.67 81.1958 20.17C81.0758 19.63 81.0158 19.14 81.0158 18.7C81.0158 17.58 81.3158 16.77 81.9158 16.27C82.5158 15.77 83.1858 15.52 83.9258 15.52C84.6658 15.52 85.2558 15.72 85.6958 16.12C86.1558 16.5 86.3858 17.03 86.3858 17.71C86.3858 18.39 86.2058 18.9 85.8458 19.24C85.4858 19.56 85.0458 19.72 84.5258 19.72C84.0258 19.72 83.6058 19.59 83.2658 19.33C82.9458 19.05 82.7758 18.66 82.7558 18.16ZM76.3958 23.77L76.3958 25.39C76.3958 26.73 76.5058 27.64 76.7258 28.12C76.9658 28.6 77.3158 28.84 77.7758 28.84C78.2558 28.84 78.5958 28.61 78.7958 28.15C79.0158 27.67 79.1258 26.7 79.1258 25.24L79.1258 23.77C79.1258 22.21 79.0258 21.19 78.8258 20.71C78.6258 20.21 78.2858 19.96 77.8058 19.96C77.3458 19.96 76.9958 20.22 76.7558 20.74C76.5158 21.24 76.3958 22.25 76.3958 23.77ZM93.3814 34.3C90.8014 34.3 88.8614 33.64 87.5614 32.32C86.2814 30.98 85.6414 29.13 85.6414 26.77C85.6414 24.39 86.3614 22.57 87.8014 21.31C89.2614 20.05 91.1114 19.42 93.3514 19.42C97.8914 19.42 100.071 21.7 99.8914 26.26L91.4314 26.26L91.4314 27.43C91.4314 29.39 91.6814 30.87 92.1814 31.87C92.6814 32.87 93.5514 33.37 94.7914 33.37C97.1114 33.37 98.6314 32.13 99.3514 29.65L99.8914 29.74C99.5114 31.18 98.8214 32.3 97.8214 33.1C96.8414 33.9 95.3614 34.3 93.3814 34.3ZM91.4614 25.66L94.5514 25.66L94.5514 24.19C94.5514 22.57 94.4514 21.47 94.2514 20.89C94.0714 20.29 93.6914 19.99 93.1114 19.99C92.5514 19.99 92.1314 20.31 91.8514 20.95C91.5914 21.57 91.4614 22.65 91.4614 24.19L91.4614 25.66ZM110.98 20.56C110.24 20.56 109.59 21.04 109.03 22C108.47 22.96 108.19 24.1 108.19 25.42L108.19 33.46L110.32 33.46L110.32 34L100.96 34L100.96 33.46L102.61 33.46L102.61 20.26L100.96 20.26L100.96 19.72L108.19 19.72L108.19 22.6C108.45 21.58 108.95 20.8 109.69 20.26C110.43 19.7 111.27 19.42 112.21 19.42C113.15 19.42 113.91 19.69 114.49 20.23C115.09 20.75 115.39 21.5 115.39 22.48C115.39 23.44 115.17 24.18 114.73 24.7C114.29 25.22 113.61 25.48 112.69 25.48C111.79 25.48 111.12 25.18 110.68 24.58C110.26 23.98 110.21 23.15 110.53 22.09L111.61 22.09C112.11 21.07 111.9 20.56 110.98 20.56ZM116.152 34.3L116.152 28.93L116.512 28.93C117.032 30.67 117.732 31.89 118.612 32.59C119.492 33.29 120.592 33.64 121.912 33.64C123.952 33.64 124.972 32.99 124.972 31.69C124.972 31.13 124.722 30.71 124.222 30.43C123.442 29.99 122.442 29.65 121.222 29.41C119.862 29.05 118.722 28.57 117.802 27.97C116.702 27.25 116.152 26.11 116.152 24.55C116.152 22.99 116.632 21.75 117.592 20.83C118.552 19.89 119.832 19.42 121.432 19.42C122.412 19.42 123.422 19.65 124.462 20.11C124.842 20.27 125.132 20.35 125.332 20.35C125.532 20.35 125.702 20.28 125.842 20.14C125.982 20 126.152 19.74 126.352 19.36L126.682 19.36L126.682 23.95L126.322 23.95C125.302 21.35 123.722 20.05 121.582 20.05C120.642 20.05 119.942 20.22 119.482 20.56C119.022 20.88 118.792 21.29 118.792 21.79C118.792 22.09 118.862 22.33 119.002 22.51C119.142 22.67 119.252 22.79 119.332 22.87C119.412 22.95 119.542 23.04 119.722 23.14C119.902 23.22 120.052 23.29 120.172 23.35C120.292 23.39 120.472 23.45 120.712 23.53C120.972 23.61 121.162 23.66 121.282 23.68C122.642 24.02 123.622 24.32 124.222 24.58C124.822 24.82 125.392 25.12 125.932 25.48C127.032 26.24 127.582 27.47 127.582 29.17C127.582 30.85 127.082 32.13 126.082 33.01C125.082 33.87 123.712 34.3 121.972 34.3C120.732 34.3 119.532 34.01 118.372 33.43C118.132 33.27 117.942 33.19 117.802 33.19C117.362 33.19 116.932 33.56 116.512 34.3L116.152 34.3ZM143.401 23.38L141.811 23.38L141.811 33.43L143.761 33.43L143.761 34L134.011 34L134.011 33.43L135.961 33.43L135.961 13.57L134.011 13.57L134.011 13L143.071 13C145.671 13 147.511 13.14 148.591 13.42C149.691 13.68 150.461 14 150.901 14.38C151.861 15.16 152.341 16.4 152.341 18.1C152.341 19.8 151.921 21.02 151.081 21.76C150.241 22.48 148.961 22.91 147.241 23.05L147.241 23.14C148.861 23.36 149.991 23.84 150.631 24.58C151.271 25.32 151.591 26.56 151.591 28.3L151.591 29.89C151.591 30.93 151.641 31.63 151.741 31.99C151.861 32.35 152.101 32.53 152.461 32.53C152.821 32.53 153.101 32.37 153.301 32.05C153.521 31.71 153.721 31.01 153.901 29.95L154.411 30.01C154.191 31.71 153.801 32.85 153.241 33.43C152.701 34.01 151.611 34.3 149.971 34.3C148.331 34.3 147.161 33.92 146.461 33.16C145.781 32.38 145.441 30.93 145.441 28.81L145.441 26.62C145.441 25.5 145.291 24.68 144.991 24.16C144.711 23.64 144.181 23.38 143.401 23.38ZM141.811 13.57L141.811 22.81L142.771 22.81C143.911 22.81 144.751 22.46 145.291 21.76C145.851 21.06 146.131 19.92 146.131 18.34L146.131 17.47C146.131 15.89 145.861 14.85 145.321 14.35C144.801 13.83 143.961 13.57 142.801 13.57L141.811 13.57ZM164.732 28.09L164.732 25.54C164.732 23.6 164.622 22.19 164.402 21.31C164.202 20.41 163.722 19.96 162.962 19.96C162.522 19.96 162.162 20.09 161.882 20.35C161.622 20.59 161.432 21 161.312 21.58C161.132 22.48 161.042 23.85 161.042 25.69L161.042 28.03C161.042 30.21 161.102 31.52 161.222 31.96C161.362 32.4 161.502 32.76 161.642 33.04C161.862 33.52 162.292 33.76 162.932 33.76C163.712 33.76 164.222 33.31 164.462 32.41C164.642 31.77 164.732 30.33 164.732 28.09ZM162.872 34.3C160.372 34.3 158.482 33.66 157.202 32.38C155.922 31.1 155.282 29.27 155.282 26.89C155.282 24.49 155.962 22.65 157.322 21.37C158.702 20.07 160.632 19.42 163.112 19.42C165.592 19.42 167.442 20.02 168.662 21.22C169.882 22.4 170.492 24.21 170.492 26.65C170.492 31.75 167.952 34.3 162.872 34.3ZM170.27 20.26L170.27 19.72L179.24 19.72L179.24 20.26L177.35 20.26L180.95 30.22L184.19 20.26L182.18 20.26L182.18 19.72L186.23 19.72L186.23 20.26L184.91 20.26L180.47 34L177.05 34L171.5 20.26L170.27 20.26ZM192.828 26.95L193.698 26.95L193.698 24.64C193.698 22.74 193.588 21.47 193.368 20.83C193.168 20.17 192.768 19.84 192.168 19.84C191.808 19.84 191.478 19.94 191.178 20.14C190.898 20.32 190.758 20.58 190.758 20.92C190.758 21.24 190.818 21.57 190.938 21.91L191.688 21.91C191.848 22.33 191.928 22.84 191.928 23.44C191.928 24.02 191.678 24.53 191.178 24.97C190.678 25.39 190.048 25.6 189.288 25.6C187.568 25.6 186.708 24.77 186.708 23.11C186.708 20.65 188.798 19.42 192.978 19.42C195.358 19.42 196.998 19.83 197.898 20.65C198.818 21.45 199.278 22.93 199.278 25.09L199.278 31.18C199.278 32.22 199.568 32.74 200.148 32.74C200.828 32.74 201.228 31.71 201.348 29.65L201.798 29.68C201.718 31.44 201.388 32.65 200.808 33.31C200.228 33.97 199.278 34.3 197.958 34.3C195.558 34.3 194.178 33.56 193.818 32.08C193.558 32.84 193.168 33.4 192.648 33.76C192.128 34.12 191.368 34.3 190.368 34.3C187.408 34.3 185.928 33.09 185.928 30.67C185.928 29.25 186.488 28.28 187.608 27.76C188.748 27.22 190.488 26.95 192.828 26.95ZM191.628 30.64C191.628 31.68 191.678 32.35 191.778 32.65C191.898 32.95 192.108 33.1 192.408 33.1C192.728 33.1 193.018 32.85 193.278 32.35C193.558 31.83 193.698 31.12 193.698 30.22L193.698 27.43L193.488 27.43C192.248 27.43 191.628 28.34 191.628 30.16L191.628 30.64ZM203.154 29.71L203.154 20.26L201.504 20.26L201.504 19.72L203.154 19.72L203.154 15.85L208.734 14.47L208.734 19.72L212.634 19.72L212.634 20.26L208.734 20.26L208.734 30.37C208.734 31.31 208.824 32 209.004 32.44C209.204 32.88 209.604 33.1 210.204 33.1C210.804 33.1 211.324 32.8 211.764 32.2C212.224 31.6 212.524 30.78 212.664 29.74L213.174 29.8C213.014 31.18 212.574 32.28 211.854 33.1C211.134 33.9 209.944 34.3 208.284 34.3C206.624 34.3 205.354 33.97 204.474 33.31C203.594 32.65 203.154 31.45 203.154 29.71Z" fill="#FFFAEF"/>
</svg>
