<svg width="107" height="32" viewBox="0 0 107 32" fill="none" xmlns="http://www.w3.org/2000/svg">
<rect y="3.05176e-05" width="107" height="32" rx="2" fill="#C50225"/>
<path d="M5.248 16.336L4.4 16.336L4.4 21.696L5.44 21.696L5.44 22L0.240001 22L0.240001 21.696L1.28 21.696L1.28 11.104L0.24 11.104L0.24 10.8L5.072 10.8C6.45867 10.8 7.44 10.8747 8.016 11.024C8.60267 11.1627 9.01333 11.3333 9.248 11.536C9.76 11.952 10.016 12.6133 10.016 13.52C10.016 14.4267 9.792 15.0773 9.344 15.472C8.896 15.856 8.21333 16.0853 7.296 16.16L7.296 16.208C8.16 16.3253 8.76267 16.5813 9.104 16.976C9.44533 17.3707 9.616 18.032 9.616 18.96L9.616 19.808C9.616 20.3627 9.64267 20.736 9.696 20.928C9.76 21.12 9.888 21.216 10.08 21.216C10.272 21.216 10.4213 21.1307 10.528 20.96C10.6453 20.7787 10.752 20.4053 10.848 19.84L11.12 19.872C11.0027 20.7787 10.7947 21.3867 10.496 21.696C10.208 22.0053 9.62667 22.16 8.752 22.16C7.87733 22.16 7.25333 21.9573 6.88 21.552C6.51733 21.136 6.336 20.3627 6.336 19.232L6.336 18.064C6.336 17.4667 6.256 17.0293 6.096 16.752C5.94667 16.4747 5.664 16.336 5.248 16.336ZM4.4 11.104L4.4 16.032L4.912 16.032C5.52 16.032 5.968 15.8453 6.256 15.472C6.55467 15.0987 6.704 14.4907 6.704 13.648L6.704 13.184C6.704 12.3413 6.56 11.7867 6.272 11.52C5.99467 11.2427 5.54667 11.104 4.928 11.104L4.4 11.104ZM15.4531 18.24L15.9171 18.24L15.9171 17.008C15.9171 15.9947 15.8585 15.3173 15.7411 14.976C15.6345 14.624 15.4211 14.448 15.1011 14.448C14.9091 14.448 14.7331 14.5013 14.5731 14.608C14.4238 14.704 14.3491 14.8427 14.3491 15.024C14.3491 15.1947 14.3811 15.3707 14.4451 15.552L14.8451 15.552C14.9305 15.776 14.9731 16.048 14.9731 16.368C14.9731 16.6773 14.8398 16.9493 14.5731 17.184C14.3065 17.408 13.9705 17.52 13.5651 17.52C12.6478 17.52 12.1891 17.0773 12.1891 16.192C12.1891 14.88 13.3038 14.224 15.5331 14.224C16.8025 14.224 17.6771 14.4427 18.1571 14.88C18.6478 15.3067 18.8931 16.096 18.8931 17.248L18.8931 20.496C18.8931 21.0507 19.0478 21.328 19.3571 21.328C19.7198 21.328 19.9331 20.7787 19.9971 19.68L20.2371 19.696C20.1945 20.6347 20.0185 21.28 19.7091 21.632C19.3998 21.984 18.8931 22.16 18.1891 22.16C16.9091 22.16 16.1731 21.7653 15.9811 20.976C15.8425 21.3813 15.6345 21.68 15.3571 21.872C15.0798 22.064 14.6745 22.16 14.1411 22.16C12.5625 22.16 11.7731 21.5147 11.7731 20.224C11.7731 19.4667 12.0718 18.9493 12.6691 18.672C13.2771 18.384 14.2051 18.24 15.4531 18.24ZM14.8131 20.208C14.8131 20.7627 14.8398 21.12 14.8931 21.28C14.9571 21.44 15.0691 21.52 15.2291 21.52C15.3998 21.52 15.5545 21.3867 15.6931 21.12C15.8425 20.8427 15.9171 20.464 15.9171 19.984L15.9171 18.496L15.8051 18.496C15.1438 18.496 14.8131 18.9813 14.8131 19.952L14.8131 20.208ZM20.4264 14.384L24.2824 14.384L24.2824 15.856C24.453 15.3653 24.7144 14.9707 25.0664 14.672C25.4184 14.3733 25.9517 14.224 26.6664 14.224C28.3197 14.224 29.1464 15.1147 29.1464 16.896L29.1464 21.712L30.0424 21.712L30.0424 22L25.5144 22L25.5144 21.712L26.1704 21.712L26.1704 16.512C26.1704 15.872 26.1277 15.4613 26.0424 15.28C25.957 15.088 25.8024 14.992 25.5784 14.992C25.237 14.992 24.933 15.216 24.6664 15.664C24.4104 16.112 24.2824 16.656 24.2824 17.296L24.2824 21.712L24.9704 21.712L24.9704 22L20.4264 22L20.4264 21.712L21.3064 21.712L21.3064 14.672L20.4264 14.672L20.4264 14.384ZM36.6698 13.552L37.1178 13.28C37.1818 12.9493 37.0538 12.784 36.7338 12.784C36.2751 12.784 36.0458 13.136 36.0458 13.84C36.0458 14.1173 36.0831 14.4373 36.1578 14.8C36.9684 15.344 37.3738 16.0427 37.3738 16.896C37.3738 17.7387 37.0804 18.3947 36.4938 18.864C35.9071 19.3333 35.1124 19.568 34.1098 19.568C33.6938 19.568 33.2618 19.5253 32.8138 19.44C32.3444 19.7387 32.1098 19.9627 32.1098 20.112C32.1098 20.2613 32.4511 20.336 33.1338 20.336L34.7658 20.336C37.1871 20.336 38.3978 21.2053 38.3978 22.944C38.3978 23.8827 38.0298 24.624 37.2938 25.168C36.5684 25.7227 35.4324 26 33.8858 26C31.2511 26 29.9338 25.4293 29.9338 24.288C29.9338 23.6693 30.3444 23.2427 31.1658 23.008L32.1258 23.44C32.0404 23.7493 31.9978 24.0427 31.9978 24.32C31.9978 25.2373 32.6804 25.696 34.0458 25.696C34.8778 25.696 35.5178 25.5413 35.9658 25.232C36.4138 24.9227 36.6378 24.5387 36.6378 24.08C36.6378 23.6213 36.4991 23.312 36.2218 23.152C35.9551 23.0027 35.4164 22.928 34.6058 22.928L33.0538 22.928C32.1898 22.928 31.5711 22.784 31.1978 22.496C30.8244 22.208 30.6378 21.856 30.6378 21.44C30.6378 21.0133 30.7711 20.6613 31.0378 20.384C31.3044 20.096 31.7791 19.744 32.4618 19.328C31.2244 18.976 30.6058 18.1653 30.6058 16.896C30.6058 16.096 30.8938 15.4507 31.4698 14.96C32.0458 14.4693 32.9098 14.224 34.0618 14.224C34.7551 14.224 35.3471 14.3573 35.8378 14.624C35.7738 14.336 35.7418 14.0747 35.7418 13.84C35.7418 13.2427 35.9018 12.8107 36.2218 12.544C36.5418 12.2773 36.8991 12.144 37.2938 12.144C37.6884 12.144 38.0031 12.2507 38.2378 12.464C38.4831 12.6667 38.6058 12.9493 38.6058 13.312C38.6058 13.6747 38.5098 13.9467 38.3178 14.128C38.1258 14.2987 37.8911 14.384 37.6138 14.384C37.3471 14.384 37.1231 14.3147 36.9418 14.176C36.7711 14.0267 36.6804 13.8187 36.6698 13.552ZM33.2778 16.544L33.2778 17.408C33.2778 18.1227 33.3364 18.608 33.4538 18.864C33.5818 19.12 33.7684 19.248 34.0138 19.248C34.2698 19.248 34.4511 19.1253 34.5578 18.88C34.6751 18.624 34.7338 18.1067 34.7338 17.328L34.7338 16.544C34.7338 15.712 34.6804 15.168 34.5738 14.912C34.4671 14.6453 34.2858 14.512 34.0298 14.512C33.7844 14.512 33.5978 14.6507 33.4698 14.928C33.3418 15.1947 33.2778 15.7333 33.2778 16.544ZM42.3368 22.16C40.9608 22.16 39.9261 21.808 39.2328 21.104C38.5501 20.3893 38.2088 19.4027 38.2088 18.144C38.2088 16.8747 38.5928 15.904 39.3608 15.232C40.1394 14.56 41.1261 14.224 42.3208 14.224C44.7421 14.224 45.9048 15.44 45.8088 17.872L41.2968 17.872L41.2968 18.496C41.2968 19.5413 41.4301 20.3307 41.6968 20.864C41.9634 21.3973 42.4274 21.664 43.0888 21.664C44.3261 21.664 45.1368 21.0027 45.5208 19.68L45.8088 19.728C45.6061 20.496 45.2381 21.0933 44.7048 21.52C44.1821 21.9467 43.3928 22.16 42.3368 22.16ZM41.3128 17.552L42.9608 17.552L42.9608 16.768C42.9608 15.904 42.9074 15.3173 42.8008 15.008C42.7048 14.688 42.5021 14.528 42.1928 14.528C41.8941 14.528 41.6701 14.6987 41.5208 15.04C41.3821 15.3707 41.3128 15.9467 41.3128 16.768L41.3128 17.552ZM51.7228 14.832C51.3281 14.832 50.9814 15.088 50.6828 15.6C50.3841 16.112 50.2348 16.72 50.2348 17.424L50.2348 21.712L51.3708 21.712L51.3708 22L46.3788 22L46.3788 21.712L47.2588 21.712L47.2588 14.672L46.3788 14.672L46.3788 14.384L50.2348 14.384L50.2348 15.92C50.3734 15.376 50.6401 14.96 51.0348 14.672C51.4294 14.3733 51.8774 14.224 52.3788 14.224C52.8801 14.224 53.2854 14.368 53.5948 14.656C53.9148 14.9333 54.0748 15.3333 54.0748 15.856C54.0748 16.368 53.9574 16.7627 53.7228 17.04C53.4881 17.3173 53.1254 17.456 52.6348 17.456C52.1548 17.456 51.7974 17.296 51.5628 16.976C51.3388 16.656 51.3121 16.2133 51.4828 15.648L52.0588 15.648C52.3254 15.104 52.2134 14.832 51.7228 14.832ZM54.4811 22.16L54.4811 19.296L54.6731 19.296C54.9505 20.224 55.3238 20.8747 55.7931 21.248C56.2625 21.6213 56.8491 21.808 57.5531 21.808C58.6411 21.808 59.1851 21.4613 59.1851 20.768C59.1851 20.4693 59.0518 20.2453 58.7851 20.096C58.3691 19.8613 57.8358 19.68 57.1851 19.552C56.4598 19.36 55.8518 19.104 55.3611 18.784C54.7745 18.4 54.4811 17.792 54.4811 16.96C54.4811 16.128 54.7371 15.4667 55.2491 14.976C55.7611 14.4747 56.4438 14.224 57.2971 14.224C57.8198 14.224 58.3585 14.3467 58.9131 14.592C59.1158 14.6773 59.2705 14.72 59.3771 14.72C59.4838 14.72 59.5745 14.6827 59.6491 14.608C59.7238 14.5333 59.8145 14.3947 59.9211 14.192L60.0971 14.192L60.0971 16.64L59.9051 16.64C59.3611 15.2533 58.5185 14.56 57.3771 14.56C56.8758 14.56 56.5025 14.6507 56.2571 14.832C56.0118 15.0027 55.8891 15.2213 55.8891 15.488C55.8891 15.648 55.9265 15.776 56.0011 15.872C56.0758 15.9573 56.1345 16.0213 56.1771 16.064C56.2198 16.1067 56.2891 16.1547 56.3851 16.208C56.4811 16.2507 56.5611 16.288 56.6251 16.32C56.6891 16.3413 56.7851 16.3733 56.9131 16.416C57.0518 16.4587 57.1531 16.4853 57.2171 16.496C57.9425 16.6773 58.4651 16.8373 58.7851 16.976C59.1051 17.104 59.4091 17.264 59.6971 17.456C60.2838 17.8613 60.5771 18.5173 60.5771 19.424C60.5771 20.32 60.3105 21.0027 59.7771 21.472C59.2438 21.9307 58.5131 22.16 57.5851 22.16C56.9238 22.16 56.2838 22.0053 55.6651 21.696C55.5371 21.6107 55.4358 21.568 55.3611 21.568C55.1265 21.568 54.8971 21.7653 54.6731 22.16L54.4811 22.16ZM69.0136 16.336L68.1656 16.336L68.1656 21.696L69.2056 21.696L69.2056 22L64.0056 22L64.0056 21.696L65.0456 21.696L65.0456 11.104L64.0056 11.104L64.0056 10.8L68.8376 10.8C70.2243 10.8 71.2056 10.8747 71.7816 11.024C72.3683 11.1627 72.779 11.3333 73.0136 11.536C73.5256 11.952 73.7816 12.6133 73.7816 13.52C73.7816 14.4267 73.5576 15.0773 73.1096 15.472C72.6616 15.856 71.979 16.0853 71.0616 16.16L71.0616 16.208C71.9256 16.3253 72.5283 16.5813 72.8696 16.976C73.211 17.3707 73.3816 18.032 73.3816 18.96L73.3816 19.808C73.3816 20.3627 73.4083 20.736 73.4616 20.928C73.5256 21.12 73.6536 21.216 73.8456 21.216C74.0376 21.216 74.187 21.1307 74.2936 20.96C74.411 20.7787 74.5176 20.4053 74.6136 19.84L74.8856 19.872C74.7683 20.7787 74.5603 21.3867 74.2616 21.696C73.9736 22.0053 73.3923 22.16 72.5176 22.16C71.643 22.16 71.019 21.9573 70.6456 21.552C70.283 21.136 70.1016 20.3627 70.1016 19.232L70.1016 18.064C70.1016 17.4667 70.0216 17.0293 69.8616 16.752C69.7123 16.4747 69.4296 16.336 69.0136 16.336ZM68.1656 11.104L68.1656 16.032L68.6776 16.032C69.2856 16.032 69.7336 15.8453 70.0216 15.472C70.3203 15.0987 70.4696 14.4907 70.4696 13.648L70.4696 13.184C70.4696 12.3413 70.3256 11.7867 70.0376 11.52C69.7603 11.2427 69.3123 11.104 68.6936 11.104L68.1656 11.104ZM80.3905 18.848L80.3905 17.488C80.3905 16.4533 80.3318 15.7013 80.2145 15.232C80.1078 14.752 79.8518 14.512 79.4465 14.512C79.2118 14.512 79.0198 14.5813 78.8705 14.72C78.7318 14.848 78.6305 15.0667 78.5665 15.376C78.4705 15.856 78.4225 16.5867 78.4225 17.568L78.4225 18.816C78.4225 19.9787 78.4545 20.6773 78.5185 20.912C78.5932 21.1467 78.6678 21.3387 78.7425 21.488C78.8598 21.744 79.0892 21.872 79.4305 21.872C79.8465 21.872 80.1185 21.632 80.2465 21.152C80.3425 20.8107 80.3905 20.0427 80.3905 18.848ZM79.3985 22.16C78.0652 22.16 77.0572 21.8187 76.3745 21.136C75.6918 20.4533 75.3505 19.4773 75.3505 18.208C75.3505 16.928 75.7132 15.9467 76.4385 15.264C77.1745 14.5707 78.2038 14.224 79.5265 14.224C80.8492 14.224 81.8358 14.544 82.4865 15.184C83.1372 15.8133 83.4625 16.7787 83.4625 18.08C83.4625 20.8 82.1078 22.16 79.3985 22.16ZM83.3438 14.672L83.3438 14.384L88.1278 14.384L88.1278 14.672L87.1198 14.672L89.0398 19.984L90.7678 14.672L89.6958 14.672L89.6958 14.384L91.8558 14.384L91.8558 14.672L91.1518 14.672L88.7838 22L86.9598 22L83.9998 14.672L83.3438 14.672ZM95.375 18.24L95.839 18.24L95.839 17.008C95.839 15.9947 95.7803 15.3173 95.663 14.976C95.5563 14.624 95.343 14.448 95.023 14.448C94.831 14.448 94.655 14.5013 94.495 14.608C94.3457 14.704 94.271 14.8427 94.271 15.024C94.271 15.1947 94.303 15.3707 94.367 15.552L94.767 15.552C94.8523 15.776 94.895 16.048 94.895 16.368C94.895 16.6773 94.7617 16.9493 94.495 17.184C94.2283 17.408 93.8923 17.52 93.487 17.52C92.5697 17.52 92.111 17.0773 92.111 16.192C92.111 14.88 93.2257 14.224 95.455 14.224C96.7243 14.224 97.599 14.4427 98.079 14.88C98.5697 15.3067 98.815 16.096 98.815 17.248L98.815 20.496C98.815 21.0507 98.9697 21.328 99.279 21.328C99.6417 21.328 99.855 20.7787 99.919 19.68L100.159 19.696C100.116 20.6347 99.9403 21.28 99.631 21.632C99.3217 21.984 98.815 22.16 98.111 22.16C96.831 22.16 96.095 21.7653 95.903 20.976C95.7643 21.3813 95.5563 21.68 95.279 21.872C95.0017 22.064 94.5963 22.16 94.063 22.16C92.4843 22.16 91.695 21.5147 91.695 20.224C91.695 19.4667 91.9937 18.9493 92.591 18.672C93.199 18.384 94.127 18.24 95.375 18.24ZM94.735 20.208C94.735 20.7627 94.7617 21.12 94.815 21.28C94.879 21.44 94.991 21.52 95.151 21.52C95.3217 21.52 95.4763 21.3867 95.615 21.12C95.7643 20.8427 95.839 20.464 95.839 19.984L95.839 18.496L95.727 18.496C95.0657 18.496 94.735 18.9813 94.735 19.952L94.735 20.208ZM100.882 19.712L100.882 14.672L100.002 14.672L100.002 14.384L100.882 14.384L100.882 12.32L103.858 11.584L103.858 14.384L105.938 14.384L105.938 14.672L103.858 14.672L103.858 20.064C103.858 20.5653 103.906 20.9333 104.002 21.168C104.109 21.4027 104.322 21.52 104.642 21.52C104.962 21.52 105.239 21.36 105.474 21.04C105.719 20.72 105.879 20.2827 105.954 19.728L106.226 19.76C106.141 20.496 105.906 21.0827 105.522 21.52C105.138 21.9467 104.503 22.16 103.618 22.16C102.733 22.16 102.055 21.984 101.586 21.632C101.117 21.28 100.882 20.64 100.882 19.712Z" fill="#FFFAEF"/>
</svg>
