<svg width="1411" height="68" viewBox="0 0 1411 68" fill="none" xmlns="http://www.w3.org/2000/svg">
<rect width="1411" height="16" fill="#9B5E3A"/>
<rect y="52" width="1411" height="16" fill="#9B5E3A"/>
<rect y="9" width="324" height="43" fill="#9B5E3A"/>
<path d="M18.6 51.472C20.2 51.472 21.608 51.04 22.824 50.176C24.072 49.312 24.696 48.016 24.696 46.288C24.696 44.528 24.024 43.184 22.68 42.256C21.368 41.328 19.48 40.528 17.016 39.856C14.584 39.152 12.808 38.544 11.688 38.032C10.6 37.52 9.56 36.848 8.568 36.016C6.584 34.352 5.592 31.776 5.592 28.288C5.592 25.44 6.6 22.992 8.616 20.944C10.664 18.896 13.448 17.872 16.968 17.872C18.664 17.872 20.424 18.128 22.248 18.64C24.104 19.12 25.256 19.36 25.704 19.36C26.152 19.36 26.552 19.04 26.904 18.4H27.432L27.768 28.096H27C25.464 25.312 23.848 23.088 22.152 21.424C20.488 19.728 18.664 18.88 16.68 18.88C14.728 18.88 13.208 19.344 12.12 20.272C11.032 21.168 10.488 22.384 10.488 23.92C10.488 25.424 11.128 26.592 12.408 27.424C13.72 28.224 15.32 28.88 17.208 29.392C19.096 29.904 20.328 30.256 20.904 30.448C21.512 30.64 22.248 30.912 23.112 31.264C24.008 31.584 24.728 31.936 25.272 32.32C25.848 32.672 26.44 33.136 27.048 33.712C27.688 34.256 28.184 34.864 28.536 35.536C29.4 37.072 29.832 38.896 29.832 41.008C29.832 44.464 28.744 47.248 26.568 49.36C24.424 51.44 21.592 52.48 18.072 52.48C16.248 52.48 14.152 52.24 11.784 51.76C9.448 51.28 8.152 51.04 7.896 51.04C7.448 51.04 7.016 51.52 6.6 52.48H5.928L5.448 41.056H6.264C7.672 43.84 9.464 46.272 11.64 48.352C13.848 50.432 16.168 51.472 18.6 51.472ZM53.6438 29.152V30.016L42.2678 51.136H42.8918C45.5798 51.136 47.6918 50.432 49.2278 49.024C50.7638 47.616 51.9638 45.328 52.8278 42.16H53.4998L52.7318 52H32.5718V51.28L44.1398 30.016H43.6118C40.3798 30.016 38.1238 30.544 36.8438 31.6C35.5958 32.656 34.4758 34.912 33.4838 38.368H32.8598L33.4838 29.152H53.6438ZM68.4165 52.48C64.2885 52.48 61.1845 51.424 59.1045 49.312C57.0565 47.168 56.0325 44.208 56.0325 40.432C56.0325 36.624 57.1845 33.712 59.4885 31.696C61.8245 29.68 64.7845 28.672 68.3685 28.672C75.6325 28.672 79.1205 32.32 78.8325 39.616H65.2965V41.488C65.2965 44.624 65.6965 46.992 66.4965 48.592C67.2965 50.192 68.6885 50.992 70.6725 50.992C74.3845 50.992 76.8165 49.008 77.9685 45.04L78.8325 45.184C78.2245 47.488 77.1205 49.28 75.5205 50.56C73.9525 51.84 71.5845 52.48 68.4165 52.48ZM65.3445 38.656H70.2885V36.304C70.2885 33.712 70.1285 31.952 69.8085 31.024C69.5205 30.064 68.9125 29.584 67.9845 29.584C67.0885 29.584 66.4165 30.096 65.9685 31.12C65.5525 32.112 65.3445 33.84 65.3445 36.304V38.656ZM96.5745 30.496C95.3905 30.496 94.3505 31.264 93.4545 32.8C92.5585 34.336 92.1105 36.16 92.1105 38.272V51.136H95.5185V52H80.5425V51.136H83.1825V30.016H80.5425V29.152H92.1105V33.76C92.5265 32.128 93.3265 30.88 94.5105 30.016C95.6945 29.12 97.0385 28.672 98.5425 28.672C100.047 28.672 101.263 29.104 102.191 29.968C103.151 30.8 103.631 32 103.631 33.568C103.631 35.104 103.279 36.288 102.575 37.12C101.871 37.952 100.783 38.368 99.3105 38.368C97.8705 38.368 96.7985 37.888 96.0945 36.928C95.4225 35.968 95.3425 34.64 95.8545 32.944H97.5825C98.3825 31.312 98.0465 30.496 96.5745 30.496ZM119.535 52V51.136H121.743L116.319 40L115.407 40.24V51.136H117.615V52H103.839V51.136H106.479V16.864H103.647V16H115.407V39.28L116.175 38.992L126.975 30.016H122.463V29.152H131.919V30.016H128.559L122.847 34.864L131.151 51.136H132.879V52H119.535ZM145.01 52.48C140.882 52.48 137.778 51.424 135.698 49.312C133.65 47.168 132.626 44.208 132.626 40.432C132.626 36.624 133.778 33.712 136.082 31.696C138.418 29.68 141.378 28.672 144.962 28.672C152.226 28.672 155.714 32.32 155.426 39.616H141.89V41.488C141.89 44.624 142.29 46.992 143.09 48.592C143.89 50.192 145.282 50.992 147.266 50.992C150.978 50.992 153.41 49.008 154.562 45.04L155.426 45.184C154.818 47.488 153.714 49.28 152.114 50.56C150.546 51.84 148.178 52.48 145.01 52.48ZM141.938 38.656H146.882V36.304C146.882 33.712 146.722 31.952 146.402 31.024C146.114 30.064 145.506 29.584 144.578 29.584C143.682 29.584 143.01 30.096 142.562 31.12C142.146 32.112 141.938 33.84 141.938 36.304V38.656ZM157.771 52.48V43.888H158.348C159.18 46.672 160.3 48.624 161.708 49.744C163.116 50.864 164.876 51.424 166.988 51.424C170.252 51.424 171.884 50.384 171.884 48.304C171.884 47.408 171.484 46.736 170.684 46.288C169.436 45.584 167.836 45.04 165.884 44.656C163.708 44.08 161.884 43.312 160.412 42.352C158.652 41.2 157.771 39.376 157.771 36.88C157.771 34.384 158.539 32.4 160.076 30.928C161.612 29.424 163.66 28.672 166.22 28.672C167.788 28.672 169.404 29.04 171.068 29.776C171.676 30.032 172.14 30.16 172.46 30.16C172.78 30.16 173.052 30.048 173.276 29.824C173.5 29.6 173.772 29.184 174.092 28.576H174.62V35.92H174.044C172.412 31.76 169.884 29.68 166.46 29.68C164.956 29.68 163.836 29.952 163.1 30.496C162.364 31.008 161.996 31.664 161.996 32.464C161.996 32.944 162.108 33.328 162.332 33.616C162.556 33.872 162.732 34.064 162.86 34.192C162.988 34.32 163.196 34.464 163.484 34.624C163.772 34.752 164.012 34.864 164.204 34.96C164.396 35.024 164.684 35.12 165.068 35.248C165.484 35.376 165.788 35.456 165.98 35.488C168.156 36.032 169.724 36.512 170.684 36.928C171.644 37.312 172.556 37.792 173.42 38.368C175.18 39.584 176.06 41.552 176.06 44.272C176.06 46.96 175.26 49.008 173.66 50.416C172.06 51.792 169.868 52.48 167.084 52.48C165.1 52.48 163.18 52.016 161.324 51.088C160.94 50.832 160.636 50.704 160.412 50.704C159.708 50.704 159.02 51.296 158.348 52.48H157.771ZM198.534 29.152V30.016L187.158 51.136H187.782C190.47 51.136 192.582 50.432 194.118 49.024C195.654 47.616 196.854 45.328 197.718 42.16H198.39L197.622 52H177.462V51.28L189.03 30.016H188.502C185.27 30.016 183.014 30.544 181.734 31.6C180.486 32.656 179.366 34.912 178.374 38.368H177.75L178.374 29.152H198.534ZM203.552 45.136V30.016H200.912V29.152H203.552V22.96L212.48 20.752V29.152H218.72V30.016H212.48V46.192C212.48 47.696 212.624 48.8 212.912 49.504C213.232 50.208 213.872 50.56 214.832 50.56C215.792 50.56 216.624 50.08 217.328 49.12C218.064 48.16 218.544 46.848 218.768 45.184L219.584 45.28C219.328 47.488 218.624 49.248 217.472 50.56C216.32 51.84 214.416 52.48 211.76 52.48C209.104 52.48 207.072 51.952 205.664 50.896C204.256 49.84 203.552 47.92 203.552 45.136ZM235.547 42.544V38.464C235.547 35.36 235.371 33.104 235.019 31.696C234.699 30.256 233.931 29.536 232.715 29.536C232.011 29.536 231.435 29.744 230.987 30.16C230.571 30.544 230.267 31.2 230.075 32.128C229.787 33.568 229.643 35.76 229.643 38.704V42.448C229.643 45.936 229.739 48.032 229.931 48.736C230.155 49.44 230.379 50.016 230.603 50.464C230.955 51.232 231.643 51.616 232.667 51.616C233.915 51.616 234.731 50.896 235.115 49.456C235.403 48.432 235.547 46.128 235.547 42.544ZM232.571 52.48C228.571 52.48 225.547 51.456 223.499 49.408C221.451 47.36 220.427 44.432 220.427 40.624C220.427 36.784 221.515 33.84 223.691 31.792C225.899 29.712 228.987 28.672 232.955 28.672C236.923 28.672 239.883 29.632 241.835 31.552C243.787 33.44 244.763 36.336 244.763 40.24C244.763 48.4 240.699 52.48 232.571 52.48ZM234.731 25.744L237.755 16.576L240.011 16.096C241.003 15.872 241.755 16 242.267 16.48C242.811 16.928 243.083 17.552 243.083 18.352C243.083 19.12 242.619 19.92 241.691 20.752L235.259 26.08L234.731 25.744ZM227.627 25.792L230.171 16.48L232.379 15.856C233.339 15.6 234.091 15.696 234.635 16.144C235.211 16.56 235.515 17.168 235.547 17.968C235.579 18.736 235.163 19.552 234.299 20.416L228.155 26.08L227.627 25.792ZM253.161 25.84C251.465 25.84 250.249 25.408 249.513 24.544C248.809 23.68 248.457 22.608 248.457 21.328C248.457 20.048 248.841 18.992 249.609 18.16C250.409 17.328 251.609 16.912 253.209 16.912C254.809 16.912 256.025 17.296 256.857 18.064C257.689 18.8 258.105 19.872 258.105 21.28C258.105 22.656 257.705 23.76 256.905 24.592C256.105 25.424 254.857 25.84 253.161 25.84ZM245.913 29.152H257.673V51.136H260.361V52H246.105V51.136H248.745V30.016H245.913V29.152ZM261.435 29.152H273.003V33.568C273.515 32.096 274.299 30.912 275.355 30.016C276.411 29.12 278.011 28.672 280.155 28.672C285.115 28.672 287.595 31.344 287.595 36.688V51.136H290.283V52H276.699V51.136H278.667V35.536C278.667 33.616 278.539 32.384 278.283 31.84C278.027 31.264 277.563 30.976 276.891 30.976C275.867 30.976 274.955 31.648 274.155 32.992C273.387 34.336 273.003 35.968 273.003 37.888V51.136H275.067V52H261.435V51.136H264.075V30.016H261.435V29.152ZM306.614 52V51.136H308.822L303.398 40L302.486 40.24V51.136H304.694V52H290.918V51.136H293.558V16.864H290.726V16H302.486V39.28L303.254 38.992L314.054 30.016H309.542V29.152H318.998V30.016H315.638L309.926 34.864L318.23 51.136H319.958V52H306.614Z" fill="#FFFAEF"/>
</svg>
