<svg width="319" height="44" viewBox="0 0 319 44" fill="none" xmlns="http://www.w3.org/2000/svg">
<rect x="0.5" y="0.5" width="318" height="43" rx="7.5" fill="#2A6D8A" stroke="#FFFAEF"/>
<path d="M26.75 33.67C27.75 33.67 28.63 33.4 29.39 32.86C30.17 32.32 30.56 31.51 30.56 30.43C30.56 29.33 30.14 28.49 29.3 27.91C28.48 27.33 27.3 26.83 25.76 26.41C24.24 25.97 23.13 25.59 22.43 25.27C21.75 24.95 21.1 24.53 20.48 24.01C19.24 22.97 18.62 21.36 18.62 19.18C18.62 17.4 19.25 15.87 20.51 14.59C21.79 13.31 23.53 12.67 25.73 12.67C26.79 12.67 27.89 12.83 29.03 13.15C30.19 13.45 30.91 13.6 31.19 13.6C31.47 13.6 31.72 13.4 31.94 13L32.27 13L32.48 19.06H32C31.04 17.32 30.03 15.93 28.97 14.89C27.93 13.83 26.79 13.3 25.55 13.3C24.33 13.3 23.38 13.59 22.7 14.17C22.02 14.73 21.68 15.49 21.68 16.45C21.68 17.39 22.08 18.12 22.88 18.64C23.7 19.14 24.7 19.55 25.88 19.87C27.06 20.19 27.83 20.41 28.19 20.53C28.57 20.65 29.03 20.82 29.57 21.04C30.13 21.24 30.58 21.46 30.92 21.7C31.28 21.92 31.65 22.21 32.03 22.57C32.43 22.91 32.74 23.29 32.96 23.71C33.5 24.67 33.77 25.81 33.77 27.13C33.77 29.29 33.09 31.03 31.73 32.35C30.39 33.65 28.62 34.3 26.42 34.3C25.28 34.3 23.97 34.15 22.49 33.85C21.03 33.55 20.22 33.4 20.06 33.4C19.78 33.4 19.51 33.7 19.25 34.3L18.83 34.3L18.53 27.16H19.04C19.92 28.9 21.04 30.42 22.4 31.72C23.78 33.02 25.23 33.67 26.75 33.67ZM48.6523 19.72V20.26L41.5423 33.46H41.9323C43.6123 33.46 44.9323 33.02 45.8923 32.14C46.8523 31.26 47.6023 29.83 48.1423 27.85H48.5623L48.0823 34L35.4823 34V33.55L42.7123 20.26H42.3823C40.3623 20.26 38.9523 20.59 38.1523 21.25C37.3723 21.91 36.6723 23.32 36.0523 25.48H35.6623L36.0523 19.72L48.6523 19.72ZM57.8853 34.3C55.3053 34.3 53.3653 33.64 52.0653 32.32C50.7853 30.98 50.1453 29.13 50.1453 26.77C50.1453 24.39 50.8653 22.57 52.3053 21.31C53.7653 20.05 55.6153 19.42 57.8553 19.42C62.3953 19.42 64.5753 21.7 64.3953 26.26L55.9353 26.26V27.43C55.9353 29.39 56.1853 30.87 56.6853 31.87C57.1853 32.87 58.0553 33.37 59.2953 33.37C61.6153 33.37 63.1353 32.13 63.8553 29.65L64.3953 29.74C64.0153 31.18 63.3253 32.3 62.3253 33.1C61.3453 33.9 59.8653 34.3 57.8853 34.3ZM55.9653 25.66L59.0553 25.66L59.0553 24.19C59.0553 22.57 58.9553 21.47 58.7553 20.89C58.5753 20.29 58.1953 19.99 57.6153 19.99C57.0553 19.99 56.6353 20.31 56.3553 20.95C56.0953 21.57 55.9653 22.65 55.9653 24.19L55.9653 25.66ZM79.1211 19.72V20.26L72.0111 33.46H72.4011C74.0811 33.46 75.4011 33.02 76.3611 32.14C77.3211 31.26 78.0711 29.83 78.6111 27.85H79.0311L78.5511 34L65.9511 34V33.55L73.1811 20.26H72.8511C70.8311 20.26 69.4211 20.59 68.6211 21.25C67.8411 21.91 67.1411 23.32 66.5211 25.48H66.1311L66.5211 19.72L79.1211 19.72ZM90.1541 28.09V25.54C90.1541 23.6 90.0441 22.19 89.8241 21.31C89.6241 20.41 89.1441 19.96 88.3841 19.96C87.9441 19.96 87.5841 20.09 87.3041 20.35C87.0441 20.59 86.8541 21 86.7341 21.58C86.5541 22.48 86.4641 23.85 86.4641 25.69V28.03C86.4641 30.21 86.5241 31.52 86.6441 31.96C86.7841 32.4 86.9241 32.76 87.0641 33.04C87.2841 33.52 87.7141 33.76 88.3541 33.76C89.1341 33.76 89.6441 33.31 89.8841 32.41C90.0641 31.77 90.1541 30.33 90.1541 28.09ZM88.2941 34.3C85.7941 34.3 83.9041 33.66 82.6241 32.38C81.3441 31.1 80.7041 29.27 80.7041 26.89C80.7041 24.49 81.3841 22.65 82.7441 21.37C84.1241 20.07 86.0541 19.42 88.5341 19.42C91.0141 19.42 92.8641 20.02 94.0841 21.22C95.3041 22.4 95.9141 24.21 95.9141 26.65C95.9141 31.75 93.3741 34.3 88.2941 34.3ZM96.8131 19.72L104.043 19.72V22.48C104.363 21.56 104.853 20.82 105.513 20.26C106.173 19.7 107.173 19.42 108.513 19.42C111.613 19.42 113.163 21.09 113.163 24.43L113.163 33.46L114.843 33.46V34L106.353 34V33.46H107.583L107.583 23.71C107.583 22.51 107.503 21.74 107.343 21.4C107.183 21.04 106.893 20.86 106.473 20.86C105.833 20.86 105.263 21.28 104.763 22.12C104.283 22.96 104.043 23.98 104.043 25.18L104.043 33.46L105.333 33.46V34L96.8131 34V33.46H98.4631L98.4631 20.26H96.8131V19.72ZM122.439 26.95H123.309V24.64C123.309 22.74 123.199 21.47 122.979 20.83C122.779 20.17 122.379 19.84 121.779 19.84C121.419 19.84 121.089 19.94 120.789 20.14C120.509 20.32 120.369 20.58 120.369 20.92C120.369 21.24 120.429 21.57 120.549 21.91H121.299C121.459 22.33 121.539 22.84 121.539 23.44C121.539 24.02 121.289 24.53 120.789 24.97C120.289 25.39 119.659 25.6 118.899 25.6C117.179 25.6 116.319 24.77 116.319 23.11C116.319 20.65 118.409 19.42 122.589 19.42C124.969 19.42 126.609 19.83 127.509 20.65C128.429 21.45 128.889 22.93 128.889 25.09V31.18C128.889 32.22 129.179 32.74 129.759 32.74C130.439 32.74 130.839 31.71 130.959 29.65L131.409 29.68C131.329 31.44 130.999 32.65 130.419 33.31C129.839 33.97 128.889 34.3 127.569 34.3C125.169 34.3 123.789 33.56 123.429 32.08C123.169 32.84 122.779 33.4 122.259 33.76C121.739 34.12 120.979 34.3 119.979 34.3C117.019 34.3 115.539 33.09 115.539 30.67C115.539 29.25 116.099 28.28 117.219 27.76C118.359 27.22 120.099 26.95 122.439 26.95ZM121.239 30.64C121.239 31.68 121.289 32.35 121.389 32.65C121.509 32.95 121.719 33.1 122.019 33.1C122.339 33.1 122.629 32.85 122.889 32.35C123.169 31.83 123.309 31.12 123.309 30.22V27.43H123.099C121.859 27.43 121.239 28.34 121.239 30.16V30.64ZM120.579 17.59L122.469 11.86L123.879 11.56C124.499 11.42 124.969 11.5 125.289 11.8C125.629 12.08 125.799 12.47 125.799 12.97C125.799 13.45 125.509 13.95 124.929 14.47L120.909 17.8L120.579 17.59ZM131.584 11.5L138.934 11.5L138.934 33.46H140.614V34L131.704 34V33.46H133.354L133.354 12.04L131.584 12.04V11.5ZM145.606 17.65C144.546 17.65 143.786 17.38 143.326 16.84C142.886 16.3 142.666 15.63 142.666 14.83C142.666 14.03 142.906 13.37 143.386 12.85C143.886 12.33 144.636 12.07 145.636 12.07C146.636 12.07 147.396 12.31 147.916 12.79C148.436 13.25 148.696 13.92 148.696 14.8C148.696 15.66 148.446 16.35 147.946 16.87C147.446 17.39 146.666 17.65 145.606 17.65ZM141.076 19.72L148.426 19.72L148.426 33.46H150.106V34L141.196 34V33.46H142.846L142.846 20.26L141.076 20.26V19.72ZM151.408 34.3V28.93H151.768C152.288 30.67 152.988 31.89 153.868 32.59C154.748 33.29 155.848 33.64 157.168 33.64C159.208 33.64 160.228 32.99 160.228 31.69C160.228 31.13 159.978 30.71 159.478 30.43C158.698 29.99 157.698 29.65 156.478 29.41C155.118 29.05 153.978 28.57 153.058 27.97C151.958 27.25 151.408 26.11 151.408 24.55C151.408 22.99 151.888 21.75 152.848 20.83C153.808 19.89 155.088 19.42 156.688 19.42C157.668 19.42 158.678 19.65 159.718 20.11C160.098 20.27 160.388 20.35 160.588 20.35C160.788 20.35 160.958 20.28 161.098 20.14C161.238 20 161.408 19.74 161.608 19.36H161.938V23.95H161.578C160.558 21.35 158.978 20.05 156.838 20.05C155.898 20.05 155.198 20.22 154.738 20.56C154.278 20.88 154.048 21.29 154.048 21.79C154.048 22.09 154.118 22.33 154.258 22.51C154.398 22.67 154.508 22.79 154.588 22.87C154.668 22.95 154.798 23.04 154.978 23.14C155.158 23.22 155.308 23.29 155.428 23.35C155.548 23.39 155.728 23.45 155.968 23.53C156.228 23.61 156.418 23.66 156.538 23.68C157.898 24.02 158.878 24.32 159.478 24.58C160.078 24.82 160.648 25.12 161.188 25.48C162.288 26.24 162.838 27.47 162.838 29.17C162.838 30.85 162.338 32.13 161.338 33.01C160.338 33.87 158.968 34.3 157.228 34.3C155.988 34.3 154.788 34.01 153.628 33.43C153.388 33.27 153.198 33.19 153.058 33.19C152.618 33.19 152.188 33.56 151.768 34.3L151.408 34.3ZM176.316 26.95H177.186L177.186 24.64C177.186 22.74 177.076 21.47 176.856 20.83C176.656 20.17 176.256 19.84 175.656 19.84C175.296 19.84 174.966 19.94 174.666 20.14C174.386 20.32 174.246 20.58 174.246 20.92C174.246 21.24 174.306 21.57 174.426 21.91H175.176C175.336 22.33 175.416 22.84 175.416 23.44C175.416 24.02 175.166 24.53 174.666 24.97C174.166 25.39 173.536 25.6 172.776 25.6C171.056 25.6 170.196 24.77 170.196 23.11C170.196 20.65 172.286 19.42 176.466 19.42C178.846 19.42 180.486 19.83 181.386 20.65C182.306 21.45 182.766 22.93 182.766 25.09L182.766 31.18C182.766 32.22 183.056 32.74 183.636 32.74C184.316 32.74 184.716 31.71 184.836 29.65L185.286 29.68C185.206 31.44 184.876 32.65 184.296 33.31C183.716 33.97 182.766 34.3 181.446 34.3C179.046 34.3 177.666 33.56 177.306 32.08C177.046 32.84 176.656 33.4 176.136 33.76C175.616 34.12 174.856 34.3 173.856 34.3C170.896 34.3 169.416 33.09 169.416 30.67C169.416 29.25 169.976 28.28 171.096 27.76C172.236 27.22 173.976 26.95 176.316 26.95ZM175.116 30.64C175.116 31.68 175.166 32.35 175.266 32.65C175.386 32.95 175.596 33.1 175.896 33.1C176.216 33.1 176.506 32.85 176.766 32.35C177.046 31.83 177.186 31.12 177.186 30.22V27.43H176.976C175.736 27.43 175.116 28.34 175.116 30.16V30.64ZM192.811 19.72L192.811 31.42C192.811 34.7 192.241 37.2 191.101 38.92C189.981 40.64 188.141 41.5 185.581 41.5C183.921 41.5 182.711 41.17 181.951 40.51C181.171 39.85 180.781 39.08 180.781 38.2C180.781 37.32 181.041 36.64 181.561 36.16C182.081 35.7 182.731 35.47 183.511 35.47C184.291 35.47 184.881 35.68 185.281 36.1C185.661 36.54 185.851 37.02 185.851 37.54C185.851 38.06 185.791 38.56 185.671 39.04L184.531 39.04C184.211 39.58 184.171 40.04 184.411 40.42C184.631 40.8 185.041 40.99 185.641 40.99C186.261 40.99 186.681 40.64 186.901 39.94C187.121 39.26 187.231 37.84 187.231 35.68L187.231 20.26L185.281 20.26V19.72L192.811 19.72ZM189.961 17.65C188.901 17.65 188.141 17.38 187.681 16.84C187.241 16.3 187.021 15.63 187.021 14.83C187.021 14.03 187.261 13.37 187.741 12.85C188.241 12.33 188.991 12.07 189.991 12.07C190.991 12.07 191.751 12.31 192.271 12.79C192.791 13.25 193.051 13.92 193.051 14.8C193.051 15.66 192.801 16.35 192.301 16.87C191.801 17.39 191.021 17.65 189.961 17.65ZM202.098 26.95L202.968 26.95L202.968 24.64C202.968 22.74 202.858 21.47 202.638 20.83C202.438 20.17 202.038 19.84 201.438 19.84C201.078 19.84 200.748 19.94 200.448 20.14C200.168 20.32 200.028 20.58 200.028 20.92C200.028 21.24 200.088 21.57 200.208 21.91L200.958 21.91C201.118 22.33 201.198 22.84 201.198 23.44C201.198 24.02 200.948 24.53 200.448 24.97C199.948 25.39 199.318 25.6 198.558 25.6C196.838 25.6 195.978 24.77 195.978 23.11C195.978 20.65 198.068 19.42 202.248 19.42C204.628 19.42 206.268 19.83 207.168 20.65C208.088 21.45 208.548 22.93 208.548 25.09L208.548 31.18C208.548 32.22 208.838 32.74 209.418 32.74C210.098 32.74 210.498 31.71 210.618 29.65L211.068 29.68C210.988 31.44 210.658 32.65 210.078 33.31C209.498 33.97 208.548 34.3 207.228 34.3C204.828 34.3 203.448 33.56 203.088 32.08C202.828 32.84 202.438 33.4 201.918 33.76C201.398 34.12 200.638 34.3 199.638 34.3C196.678 34.3 195.198 33.09 195.198 30.67C195.198 29.25 195.758 28.28 196.878 27.76C198.018 27.22 199.758 26.95 202.098 26.95ZM200.898 30.64C200.898 31.68 200.948 32.35 201.048 32.65C201.168 32.95 201.378 33.1 201.678 33.1C201.998 33.1 202.288 32.85 202.548 32.35C202.828 31.83 202.968 31.12 202.968 30.22V27.43H202.758C201.518 27.43 200.898 28.34 200.898 30.16V30.64ZM200.238 17.59L202.128 11.86L203.538 11.56C204.158 11.42 204.628 11.5 204.948 11.8C205.288 12.08 205.458 12.47 205.458 12.97C205.458 13.45 205.168 13.95 204.588 14.47L200.568 17.8L200.238 17.59ZM211.423 19.72L218.653 19.72V22.48C218.973 21.56 219.463 20.82 220.123 20.26C220.783 19.7 221.783 19.42 223.123 19.42C226.223 19.42 227.773 21.09 227.773 24.43L227.773 33.46L229.453 33.46V34L220.963 34V33.46L222.193 33.46L222.193 23.71C222.193 22.51 222.113 21.74 221.953 21.4C221.793 21.04 221.503 20.86 221.083 20.86C220.443 20.86 219.873 21.28 219.373 22.12C218.893 22.96 218.653 23.98 218.653 25.18L218.653 33.46L219.943 33.46V34L211.423 34V33.46L213.073 33.46L213.073 20.26L211.423 20.26V19.72ZM229.729 11.5L237.079 11.5L237.079 33.46L238.759 33.46V34L229.849 34V33.46H231.499L231.499 12.04L229.729 12.04V11.5ZM249.031 28.09L249.031 25.54C249.031 23.6 248.921 22.19 248.701 21.31C248.501 20.41 248.021 19.96 247.261 19.96C246.821 19.96 246.461 20.09 246.181 20.35C245.921 20.59 245.731 21 245.611 21.58C245.431 22.48 245.341 23.85 245.341 25.69L245.341 28.03C245.341 30.21 245.401 31.52 245.521 31.96C245.661 32.4 245.801 32.76 245.941 33.04C246.161 33.52 246.591 33.76 247.231 33.76C248.011 33.76 248.521 33.31 248.761 32.41C248.941 31.77 249.031 30.33 249.031 28.09ZM247.171 34.3C244.671 34.3 242.781 33.66 241.501 32.38C240.221 31.1 239.581 29.27 239.581 26.89C239.581 24.49 240.261 22.65 241.621 21.37C243.001 20.07 244.931 19.42 247.411 19.42C249.891 19.42 251.741 20.02 252.961 21.22C254.181 22.4 254.791 24.21 254.791 26.65C254.791 31.75 252.251 34.3 247.171 34.3ZM245.191 17.59L247.081 11.86L248.491 11.56C249.111 11.42 249.581 11.5 249.901 11.8C250.241 12.08 250.411 12.47 250.411 12.97C250.411 13.45 250.121 13.95 249.541 14.47L245.521 17.8L245.191 17.59ZM260.04 17.65C258.98 17.65 258.22 17.38 257.76 16.84C257.32 16.3 257.1 15.63 257.1 14.83C257.1 14.03 257.34 13.37 257.82 12.85C258.32 12.33 259.07 12.07 260.07 12.07C261.07 12.07 261.83 12.31 262.35 12.79C262.87 13.25 263.13 13.92 263.13 14.8C263.13 15.66 262.88 16.35 262.38 16.87C261.88 17.39 261.1 17.65 260.04 17.65ZM255.51 19.72L262.86 19.72L262.86 33.46H264.54V34L255.63 34V33.46H257.28L257.28 20.26L255.51 20.26V19.72ZM265.212 19.72L272.442 19.72V22.48C272.762 21.56 273.252 20.82 273.912 20.26C274.572 19.7 275.572 19.42 276.912 19.42C280.012 19.42 281.562 21.09 281.562 24.43V33.46H283.242V34L274.752 34V33.46H275.982V23.71C275.982 22.51 275.902 21.74 275.742 21.4C275.582 21.04 275.292 20.86 274.872 20.86C274.232 20.86 273.662 21.28 273.162 22.12C272.682 22.96 272.442 23.98 272.442 25.18L272.442 33.46H273.732V34L265.212 34V33.46H266.862L266.862 20.26L265.212 20.26V19.72ZM293.448 34V33.46L294.828 33.46L291.438 26.5L290.868 26.65V33.46H292.248V34L283.638 34V33.46L285.288 33.46L285.288 12.04L283.518 12.04V11.5L290.868 11.5L290.868 26.05L291.348 25.87L298.098 20.26L295.278 20.26V19.72L301.188 19.72V20.26L299.088 20.26L295.518 23.29L300.708 33.46H301.788V34L293.448 34Z" fill="#FFFAEF"/>
</svg>
